<svg width="20" height="22" viewBox="0 0 20 22" fill="none" xmlns="http://www.w3.org/2000/svg">
<rect width="8.74802" height="19.1454" rx="4.37401" transform="matrix(0.864688 -0.502309 0.497695 0.867352 0 5.11169)" fill="#F6F6F6"/>
<path fill-rule="evenodd" clip-rule="evenodd" d="M19.5813 7.8451C19.8488 7.32643 20 6.73723 20 6.11251C20 4.03233 18.324 2.34601 16.2566 2.34601C14.1892 2.34601 12.5132 4.03233 12.5132 6.11251C12.5132 6.73723 12.6644 7.32643 12.9319 7.8451H12.9318L12.9327 7.84658C12.9858 7.94946 13.0435 8.04956 13.1055 8.14661L15.2968 11.9506C15.7851 12.7982 17.017 12.7719 17.4686 11.9042L19.5815 7.8451H19.5813Z" fill="#F6F6F6"/>
<ellipse cx="16.3714" cy="6.28244" rx="1.14704" ry="1.155" fill="#0F1315"/>
</svg>
