<svg width="20" height="21" viewBox="0 0 20 21" fill="none" xmlns="http://www.w3.org/2000/svg">
<rect width="8.74802" height="19.1454" rx="4.37401" transform="matrix(0.864688 -0.502309 0.497695 0.867352 0 4.39423)" fill="#0F1315"/>
<path fill-rule="evenodd" clip-rule="evenodd" d="M19.5813 7.12765C19.8489 6.60898 20 6.01977 20 5.39504C20 3.31486 18.3241 1.62854 16.2566 1.62854C14.1892 1.62854 12.5132 3.31486 12.5132 5.39504C12.5132 6.01977 12.6644 6.60898 12.9319 7.12765H12.9318L12.9332 7.13001C12.986 7.23227 13.0434 7.33179 13.105 7.42829L15.2968 11.2332C15.7851 12.0807 17.017 12.0544 17.4686 11.1868L19.5815 7.12765H19.5813Z" fill="#0F1315"/>
<ellipse cx="16.3715" cy="5.565" rx="1.14704" ry="1.155" fill="#F6F6F6"/>
</svg>
