<svg width="860" height="640" viewBox="0 0 860 640" fill="none" xmlns="http://www.w3.org/2000/svg">
<g clip-path="url(#clip0_323_712)">
<rect width="860" height="640" fill="#4D4D4D"/>
<path d="M67.9649 15.4409L89.5492 66.8232C92.4033 73.6099 100.585 76.3261 106.933 72.5963L119.38 65.2745C121.423 64.0745 123.766 63.4988 126.134 63.6123L170.219 65.7448C171.905 65.8259 173.559 66.2556 175.067 67.0178L279.291 119.13C281.724 120.346 284.497 120.711 287.165 120.168L313.281 114.824C316.736 114.119 320.328 114.946 323.125 117.095L338.271 128.722C340.809 130.668 344.012 131.536 347.19 131.138L353.239 130.384C355.582 130.092 357.958 130.49 360.083 131.519L387.553 144.914C389.216 145.725 391.04 146.147 392.889 146.147H409.876C412.786 146.147 415.608 145.101 417.814 143.195L434.087 129.176C436.536 127.06 439.73 126.014 442.957 126.265L456.79 127.327C458.25 127.441 459.677 127.814 460.998 128.43L477.993 136.36C481.358 137.933 485.258 137.876 488.575 136.214L491.761 134.625C494.664 133.173 496.861 130.627 497.875 127.546L514.432 77.1694C515.032 75.3369 516.062 73.6747 517.432 72.3206L570.939 19.3816C578.666 11.7355 573.25 -1.42431 562.385 -1.42431H79.1787C70.4785 -1.43242 64.5919 7.42184 67.9649 15.4409Z" fill="#F6F6F6"/>
<path d="M233.066 515.918C231.996 517.256 232.158 519.202 233.439 520.353L267.599 550.848C272.57 555.284 280.175 554.903 284.675 549.989L311.433 520.742L315.252 512.756C316.914 509.277 313.233 505.653 309.779 507.38L284.773 519.883C283.629 520.459 282.405 520.84 281.14 521.034L269.375 522.802C267.696 523.053 265.986 522.948 264.348 522.502L236.447 514.831C235.198 514.491 233.869 514.921 233.066 515.926V515.918Z" fill="#F6F6F6"/>
<path d="M533.349 141.955L527.567 126.922C525.808 122.357 526.959 117.184 530.486 113.787L564.768 80.8187C566.122 79.5133 567.16 77.9159 567.793 76.1483L591.509 9.8711C593.236 5.03045 597.826 1.80334 602.958 1.80334H858.58C865.659 1.80334 871.245 7.82781 870.71 14.882L867.686 54.8073C867.581 56.2262 867.224 57.6128 866.64 58.902L841.699 113.974C840.556 116.495 840.312 119.341 841.002 122.025L845.267 138.598C845.713 140.317 846.702 141.842 848.096 142.944L848.534 143.293C853.132 146.918 852.491 154.069 847.318 156.818L804.06 179.813C802.203 180.802 800.801 182.472 800.152 184.467L786.441 226.679C785.987 228.082 785.16 229.33 784.049 230.295L767.524 244.663C767.24 244.914 766.932 245.141 766.616 245.344L707.19 283.867C706.282 284.459 705.261 284.856 704.19 285.05L656.489 293.459C655.638 293.605 654.77 293.621 653.919 293.499L596.147 285.099C594.647 284.88 593.115 285.091 591.72 285.699L573.006 293.905C570.647 294.943 568.92 297.035 568.352 299.54L566.511 307.673C566.179 309.132 565.457 310.462 564.42 311.532L540.833 335.816C539.308 337.389 537.208 338.273 535.019 338.273H528.905C527.713 338.273 526.538 338.014 525.459 337.503L520.983 335.403C518.762 334.357 516.2 334.373 513.994 335.444L499.626 342.425C499.245 342.611 498.88 342.822 498.532 343.065L484.764 352.657C484.447 352.876 484.147 353.12 483.864 353.387L470.525 365.858C466.382 369.733 460.114 370.228 455.412 367.05L402.132 331.081C400.697 330.108 399.067 329.46 397.364 329.168L341.952 319.762C340.468 319.511 338.96 319.535 337.485 319.835L323.303 322.73C310.249 325.397 303.024 308.151 314.084 300.716L528.775 156.38C533.486 153.218 535.376 147.218 533.34 141.923L533.349 141.955Z" fill="#F6F6F6"/>
<path d="M871.302 84.7512L852.71 106.619C849.491 110.406 848.899 115.782 851.226 120.176L864.094 144.534C867.345 150.696 864.775 158.326 858.451 161.253L831.239 173.845C829.074 174.851 827.25 176.464 826.001 178.491L788.614 239.012C787.795 240.333 786.741 241.485 785.492 242.401L744.051 273.001C738.813 276.869 737.548 284.183 741.188 289.583L748.381 300.253C749.872 302.459 752.037 304.121 754.559 304.973L841.423 334.422C842.68 334.852 844.002 335.062 845.331 335.062H882.743C889.457 335.062 894.906 329.614 894.906 322.9V92.6244C894.906 85.9107 889.457 80.4619 882.743 80.4619H880.57C877.002 80.4619 873.613 82.0268 871.302 84.7512Z" fill="#F6F6F6"/>
<path d="M431.906 359.063L451.698 372.993C454.763 375.15 458.655 375.774 462.239 374.679L472.204 371.647C474.174 371.047 475.95 369.96 477.385 368.485L498.969 346.268C501.386 343.779 504.751 342.441 508.221 342.595L522.929 343.227C528.005 343.503 530.186 349.803 526.367 353.16L504.199 372.628C503.786 372.985 503.356 373.317 502.902 373.625L457.366 404.794L431.906 359.063Z" fill="#F6F6F6"/>
<path d="M783.133 340.584L784.146 349.301C784.641 353.549 787.325 357.222 791.225 358.982L805.682 365.509C808.504 366.782 811.714 366.936 814.642 365.923L828.815 361.049C839.729 357.295 839.769 341.881 828.88 338.071L799.236 327.692C790.755 324.724 782.103 331.657 783.141 340.576L783.133 340.584Z" fill="#F6F6F6"/>
<path d="M465.158 405.556L521.616 364.982C524.9 362.623 529.23 365.996 527.754 369.758L515.972 399.775C515.624 400.659 514.975 401.396 514.14 401.85L494.769 412.407C494.177 412.732 493.504 412.902 492.831 412.902H467.534C463.593 412.902 461.971 407.851 465.166 405.556H465.158Z" fill="#F6F6F6"/>
<path d="M170.786 65.7697L126.126 63.6048C123.758 63.4912 121.415 64.0669 119.371 65.267L106.925 72.5888C100.576 76.3186 92.3952 73.6023 89.5411 66.8157L68.0784 15.7172C64.681 7.62509 70.6974 -1.28593 79.4706 -1.15619L272.002 1.69793C276.794 1.7709 281.1 4.64935 282.997 9.05215L288.243 21.2551C289.581 24.3687 289.556 27.9039 288.186 31.0013L262.629 88.5053C259.986 94.4487 253.142 97.2623 247.093 94.8947L174.63 66.5967C173.405 66.1183 172.108 65.8427 170.794 65.7778L170.786 65.7697Z" fill="#F6F6F6"/>
<path d="M226.036 315.708L248.528 335.525C253.004 339.465 253.961 346.065 250.791 351.117L239.034 369.839C236.261 374.258 230.982 376.415 225.906 375.199L175.051 363.06C168.451 361.487 164.413 354.806 166.091 348.23L172.221 324.141C173.519 319.049 177.938 315.359 183.184 315.003L217.174 312.7C220.409 312.481 223.604 313.567 226.036 315.708Z" fill="#F6F6F6"/>
<path d="M413.994 344.857L382.121 333.141C381.196 332.8 380.231 332.573 379.25 332.468L354.082 329.711C352.152 329.5 350.198 329.752 348.39 330.449L322.817 340.284C320.668 341.111 318.325 341.314 316.062 340.86L291.519 335.954C288.664 335.387 285.697 335.857 283.159 337.284L265.313 347.355C262.677 348.838 260.691 351.255 259.742 354.125L254.172 370.925C253.191 373.885 251.107 376.358 248.358 377.826L235.709 384.58C233.788 385.61 231.623 386.096 229.45 385.999L191.097 384.304C183.897 383.988 178.002 389.964 178.416 397.156L182.867 474.104C183.143 478.814 186.111 482.942 190.489 484.693L238.612 503.942C239.577 504.331 240.59 504.591 241.62 504.72L269.221 508.166C271.369 508.434 273.551 508.126 275.537 507.266L334.257 481.993C335.774 481.336 337.144 480.387 338.279 479.187L378.042 437.211C379.55 435.622 381.448 434.47 383.556 433.87L427.56 421.4C428.508 421.132 429.424 420.751 430.276 420.256L459.32 403.659C466.65 399.475 467.59 389.275 461.144 383.818L417.659 346.974C416.573 346.049 415.332 345.328 413.994 344.841V344.857Z" fill="#F6F6F6"/>
<path d="M588.534 310.478L546.598 356.825C546.03 357.449 545.535 358.131 545.114 358.852L520.765 400.577L559.547 401.923C566.349 402.159 571.636 407.932 571.271 414.726L564.566 540.267C564.249 546.251 568.328 551.57 574.19 552.811L603.591 559.046C611.034 560.627 615.218 568.581 612.299 575.611L599.139 607.298C597.25 611.839 592.823 614.799 587.909 614.799H585.355C576.266 614.799 570.387 624.399 574.523 632.491L579.266 641.775C581.342 645.845 585.526 648.408 590.099 648.408H853.87C860.583 648.408 866.032 642.959 866.032 636.245V368.371C866.032 358.674 855.232 352.876 847.148 358.236L835.796 365.769C834.88 366.377 833.883 366.855 832.837 367.196L808.155 375.215C804.295 376.471 800.071 375.717 796.884 373.212L783.23 362.485C780.7 360.498 779.062 357.587 778.673 354.393L776.062 332.962C775.543 328.73 772.851 325.073 768.951 323.33L740.962 310.819C739.737 310.275 738.44 309.935 737.11 309.813L670.679 303.724C670.152 303.675 669.625 303.659 669.098 303.683L597.096 306.481C593.828 306.61 590.747 308.046 588.55 310.47L588.534 310.478Z" fill="#F6F6F6"/>
<path d="M213.266 512.456L258.08 552.113C263.578 556.978 263.545 565.565 258.015 570.389L247.028 579.973C242.609 583.825 236.074 583.979 231.485 580.338L210.752 563.919C209.244 562.719 208.036 561.186 207.233 559.427L192.176 526.394C188.268 517.815 195.176 508.239 204.549 509.253L206.519 509.464C209.025 509.731 211.384 510.777 213.274 512.447L213.266 512.456Z" fill="#F6F6F6"/>
<path d="M536.195 390.199H559.774C566.487 390.199 571.936 395.648 571.936 402.361V539.262C571.936 544.337 568.782 548.886 564.022 550.662L415.827 605.863C414.351 606.415 412.997 607.242 411.838 608.312L371.718 645.205C369.472 647.272 366.537 648.416 363.488 648.416H296.708C293.781 648.416 290.943 647.361 288.738 645.44L244.11 606.69C238.02 601.404 238.669 591.763 245.407 587.336L306.997 546.916C308.838 545.708 310.314 544.029 311.271 542.043L325.347 512.958C326.798 509.966 329.409 507.696 332.579 506.674L350.174 501.023C352.907 500.147 355.234 498.331 356.758 495.907L385.737 449.681C387.472 446.908 390.262 444.954 393.456 444.257L425.038 437.389C425.516 437.284 425.979 437.154 426.441 436.992L463.828 424.018C464.931 423.637 466.074 423.418 467.234 423.362L494.842 422.048C497.867 421.902 500.721 420.637 502.861 418.497L527.6 393.758C529.878 391.48 532.976 390.199 536.203 390.199H536.195Z" fill="#F6F6F6"/>
<path d="M577.409 291.57L573.517 293.775C570.793 295.316 568.766 297.854 567.866 300.854L565.368 309.148C564.736 311.248 563.552 313.13 561.938 314.613L540.524 334.244C537.249 337.244 532.603 338.225 528.394 336.798L521.413 334.422C518.048 333.279 514.359 333.668 511.302 335.476L499.067 342.725C494.534 345.409 488.858 341.857 489.296 336.603L489.677 332.095C489.937 328.957 491.404 326.046 493.772 323.97L559.352 266.393C564.695 261.699 572.909 262.574 577.142 268.283L581.179 273.731C585.534 279.602 583.766 287.953 577.409 291.561V291.57Z" fill="#F6F6F6"/>
<path d="M642.997 191.383L580.733 194.943C574.295 195.308 569.268 200.635 569.268 207.089V257.693C569.268 260.531 570.266 263.288 572.082 265.469L584.504 280.404C586.815 283.185 590.244 284.791 593.853 284.791H667.654C673.581 284.791 678.641 280.518 679.646 274.68L693.641 192.746C694.639 186.899 699.706 182.635 705.634 182.635H795.806C798.247 182.635 800.622 181.905 802.641 180.534L841.034 154.458C847.375 150.153 848.202 141.136 842.753 135.744L841.253 134.26C837.637 130.685 836.623 125.228 838.723 120.598L867.532 56.9722C871.164 48.9531 865.343 39.8556 856.545 39.7907L667.411 38.3961C660.681 38.3474 655.192 43.7638 655.159 50.4937L654.47 179.318C654.438 185.74 649.411 191.027 643.005 191.4L642.997 191.383Z" fill="#F6F6F6"/>
<path d="M566.836 169.442V256.088C566.836 259.647 565.279 263.028 562.571 265.339L490.083 327.222C486.799 330.027 486.288 334.916 488.923 338.338L488.98 338.411C491.485 341.663 491.169 346.268 488.242 349.147L470.469 366.604C465.855 371.136 458.509 371.266 453.733 366.904L430.633 345.773C429.425 344.671 428.014 343.819 426.465 343.276L411.278 337.925C406.413 336.206 403.162 331.616 403.162 326.451V166.815C403.162 160.102 408.611 154.653 415.324 154.653H432.725C433.746 154.653 434.76 154.523 435.741 154.272L444.563 152.01C447.109 151.353 449.809 151.547 452.241 152.553L471.19 160.402C473.063 161.18 475.099 161.472 477.118 161.261L519.865 156.753C520.359 156.704 520.854 156.68 521.348 156.688L554.876 157.272C561.509 157.385 566.828 162.802 566.828 169.434L566.836 169.442Z" fill="#F6F6F6"/>
<path d="M649.729 188.988L587.465 192.547C581.027 192.912 576 198.239 576 204.693V255.297C576 258.135 576.997 260.892 578.813 263.073L591.235 278.009C593.546 280.79 596.976 282.395 600.584 282.395H674.386C680.313 282.395 685.373 278.122 686.378 272.284L700.373 190.35C701.37 184.504 706.438 180.239 712.365 180.239H802.538C804.978 180.239 807.354 179.509 809.373 178.139L847.766 152.062C854.106 147.757 854.933 138.741 849.485 133.349L847.985 131.865C844.368 128.289 843.355 122.832 845.455 118.202L874.264 54.5764C877.896 46.5573 872.074 37.4598 863.277 37.395L674.143 36.0003C667.413 35.9517 661.924 41.368 661.891 48.0979L661.202 176.922C661.169 183.344 656.142 188.631 649.737 189.004L649.729 188.988Z" fill="#ADADAD"/>
<path d="M653.729 181.988L591.465 185.547C585.027 185.912 580 191.239 580 197.693V248.297C580 251.135 580.997 253.892 582.813 256.073L595.235 271.009C597.546 273.79 600.976 275.395 604.584 275.395H678.386C684.313 275.395 689.373 271.122 690.378 265.284L704.373 183.35C705.37 177.504 710.438 173.239 716.365 173.239H806.538C808.978 173.239 811.354 172.509 813.373 171.139L851.766 145.062C858.106 140.757 858.933 131.741 853.485 126.349L851.985 124.865C848.368 121.289 847.355 115.832 849.455 111.202L878.264 47.5764C881.896 39.5573 876.074 30.4598 867.277 30.395L678.143 29.0003C671.413 28.9517 665.924 34.368 665.891 41.0979L665.202 169.922C665.169 176.344 660.142 181.631 653.737 182.004L653.729 181.988Z" fill="#364EC0"/>
<path d="M388.332 329.289L344.733 319.478C343.079 319.105 341.368 319.081 339.706 319.413L265.856 333.976C262.353 334.665 258.729 333.781 255.931 331.56L226.441 308.102C225.258 307.162 223.92 306.448 222.476 306.002L180.443 292.956C178.594 292.38 176.908 291.375 175.521 290.013L97.4628 213.341C91.7059 207.689 92.9465 198.105 99.952 194.108L121.723 181.67C124.301 180.194 127.334 179.716 130.245 180.324L188.989 192.583C190.351 192.867 191.746 192.916 193.124 192.729L240.347 186.267C243.088 185.894 245.877 186.462 248.245 187.881L265.613 198.284C267.964 199.694 270.729 200.27 273.453 199.905L294.421 197.148C297.186 196.784 298.767 193.808 297.519 191.319L297.089 190.467C296.059 188.4 293.513 187.613 291.494 188.74L284.359 192.705C281.926 194.059 279.105 194.529 276.372 194.059L267.259 192.47C263.886 191.886 260.91 189.9 259.077 187.005L231.89 144.185C230.463 141.939 230.552 139.044 232.117 136.896L244.645 119.674C246.947 116.511 251.504 116.09 254.35 118.774L273.121 136.523C276.137 139.377 275.732 144.282 272.302 146.609L272.156 146.707C268.548 149.147 268.329 154.385 271.718 157.126L276.859 161.277C277.726 161.983 278.764 162.445 279.867 162.631L296.967 165.486C297.421 165.558 297.876 165.591 298.33 165.567L348.155 163.264C349.59 163.199 350.985 162.753 352.193 161.967L364.591 153.931C366.82 152.488 369.61 152.228 372.066 153.226L385.267 158.618C387.31 159.453 389.597 159.421 391.616 158.521L391.786 158.448C397.145 156.072 403.178 159.996 403.178 165.859V317.419C403.178 325.211 395.945 330.992 388.348 329.281L388.332 329.289Z" fill="#F6F6F6"/>
<mask id="path-23-inside-1_323_712" fill="white">
<path d="M781.649 363.974C781.649 360.22 780.124 356.555 777.457 353.904L744.967 321.641C742.664 319.354 739.624 317.919 736.405 317.595L691.939 313.07L682.006 293.829C679.955 289.864 676.103 287.059 671.7 286.337L603.039 275.026C600.947 274.677 599.042 273.704 597.534 272.204L586.328 261.039C582.355 257.082 576.404 255.834 571.174 257.869L546.119 267.599C544.343 268.288 542.422 268.458 540.557 268.11L492.929 259.069C490.302 258.574 488.015 257.082 486.491 254.885L473.728 236.487C471.32 233.017 467.533 230.82 463.333 230.438L422.703 226.814C417.44 226.344 413.467 222.006 413.467 216.719V191.032L495.475 190.238C499.107 190.205 502.553 188.794 505.172 186.273L521.551 170.51C523.618 168.524 526.44 167.494 529.311 167.705L574.141 170.94C574.482 170.964 574.822 170.98 575.163 170.98H597.574C601.385 170.98 604.839 173.08 606.583 176.47L612.104 187.189C614.545 191.932 619.386 194.876 624.713 194.876H698.985C700.882 194.876 702.739 195.411 704.352 196.416L860.356 293.878L862.505 290.44L706.501 192.978C704.247 191.567 701.644 190.821 698.985 190.821H624.713C620.902 190.821 617.448 188.721 615.704 185.332L610.183 174.613C607.742 169.87 602.901 166.926 597.574 166.926H575.163C574.92 166.926 574.676 166.918 574.433 166.902L529.602 163.667C525.589 163.375 521.632 164.81 518.737 167.591L502.359 183.354C500.486 185.154 498.029 186.159 495.426 186.183L413.459 186.978V133.325C413.459 129.896 412.219 126.579 409.965 123.993L377.458 86.7433C374.929 83.8486 371.272 82.081 367.428 81.9026L278.675 77.735C278.059 77.7026 277.443 77.6215 276.843 77.4836L134.591 44.2153C133.577 43.9802 132.612 43.591 131.72 43.0558L108.441 29.2068C104.006 26.5716 102.263 21.0337 104.387 16.3309L125.874 -31.3378L122.177 -33L100.69 14.6687C97.7222 21.2526 100.163 29.0041 106.374 32.6934L129.653 46.5424C130.901 47.2883 132.255 47.8316 133.674 48.164L274.451 81.0999L275.367 101.079C275.415 102.19 275.237 103.268 274.824 104.298L263.796 131.777C262.377 135.304 262.767 139.317 264.826 142.52L288.567 179.397C290.278 182.056 290.173 185.559 288.308 188.113L271.118 211.595C269.764 213.452 268.986 215.641 268.864 217.927L266.464 264.218C266.294 267.469 267.437 270.558 269.683 272.918C271.929 275.277 274.953 276.583 278.205 276.583H278.489C280.67 276.583 282.762 277.515 284.213 279.137C285.672 280.759 286.378 282.932 286.143 285.105L281.359 330.041C281.018 333.203 281.999 336.414 284.051 338.854L332.255 396.164C333.422 397.55 334.063 399.31 334.063 401.118V471.531C334.063 474.32 335.06 477.028 336.868 479.152L377.142 526.44C378.196 527.68 379.477 528.67 380.945 529.383L409.081 543.086L411.294 562.554C411.602 565.254 410.792 568.019 409.065 570.119L402.124 578.592C400.056 581.122 398.913 584.317 398.913 587.585V601.604C398.913 607.053 394.648 611.504 389.199 611.731L384.107 611.942C376.485 612.258 370.51 618.485 370.51 626.123V661.078H374.564V626.123C374.564 620.674 378.829 616.223 384.277 615.996L389.369 615.785C396.991 615.469 402.967 609.242 402.967 601.604V587.585C402.967 585.249 403.778 582.971 405.262 581.163L412.202 572.69C414.619 569.746 415.754 565.879 415.324 562.092L413.402 545.186L432.222 554.357C433.706 555.078 435.287 555.476 436.933 555.532L641.521 563.17C643.556 563.243 645.446 564.103 646.84 565.587L709.777 632.488C711.123 633.923 711.869 635.796 711.869 637.767V671.984H715.923V637.767C715.923 634.759 714.788 631.896 712.728 629.707L674.952 589.555L677.498 543.719C677.741 539.405 676.03 535.27 672.819 532.383L649.135 511.091C647.002 509.169 645.778 506.429 645.778 503.558V345.43C645.778 337.606 639.413 331.241 631.589 331.241H597.185L602.334 323.66C604.02 321.178 606.696 319.581 609.68 319.273L660.049 314.092C660.73 314.019 661.427 314.019 662.108 314.092L689.344 316.865L704.766 346.752C706.363 349.849 709.039 352.241 712.299 353.49L777.587 378.52V655.767H781.641V380.093L860.737 410.41L862.189 406.624L781.641 375.747V363.974H781.649ZM267.559 133.285L278.586 105.806C279.218 104.233 279.494 102.579 279.421 100.892L278.545 81.8053L367.266 85.9649C370.007 86.0946 372.618 87.3514 374.426 89.4271L406.932 126.677C408.546 128.525 409.429 130.893 409.429 133.342V187.035L315.138 187.951L285.745 167.526L268.232 140.323C266.886 138.231 266.634 135.596 267.559 133.285ZM382.721 525.743C381.764 525.272 380.921 524.624 380.231 523.813L339.958 476.525C338.774 475.131 338.117 473.363 338.117 471.531V401.118C338.117 398.353 337.136 395.669 335.36 393.553L287.156 336.244C285.81 334.646 285.17 332.546 285.389 330.471L290.173 285.534C290.529 282.226 289.451 278.902 287.221 276.429C284.991 273.956 281.805 272.529 278.48 272.529H278.197C276.064 272.529 274.078 271.677 272.61 270.129C271.142 268.58 270.396 266.553 270.502 264.428L272.902 218.138C272.983 216.638 273.494 215.203 274.378 213.987L291.567 190.505C294.421 186.605 294.583 181.254 291.965 177.191L291.486 176.453L313.346 191.64C315.568 193.189 317.06 195.5 317.538 198.167L321.065 217.765C321.738 221.487 323.814 224.73 326.919 226.895L400.664 278.261C403.056 279.923 405.862 280.807 408.773 280.807H425.33C426.587 280.807 427.827 281.042 428.995 281.496L517.472 315.835C522.71 317.87 528.67 316.613 532.643 312.64L540.686 304.597C544.505 300.778 550.635 300.624 554.641 304.24L585.031 331.654C586.49 332.968 588.193 333.941 590.025 334.557L535.57 414.724C534.913 415.689 534.103 416.524 533.162 417.213L505.732 437.257C504.442 438.205 502.918 438.838 501.337 439.081L469.925 444.035C467.128 444.473 464.558 445.73 462.49 447.652L418.843 488.144C417.481 489.409 416.386 490.909 415.608 492.604L407.419 510.361C406.332 512.721 405.91 515.332 406.202 517.91L408.521 538.319L382.704 525.743H382.721ZM594.55 335.311H631.58C637.167 335.311 641.716 339.86 641.716 345.447V503.575C641.716 507.596 643.427 511.44 646.419 514.123L670.103 535.416C672.398 537.475 673.614 540.435 673.444 543.516L671.117 585.501L649.784 562.83C647.651 560.568 644.765 559.254 641.659 559.141L437.079 551.503C436 551.462 434.962 551.203 433.989 550.732L412.851 540.435L410.24 517.464C410.029 515.623 410.329 513.758 411.108 512.072L419.297 494.315C419.857 493.107 420.635 492.036 421.608 491.128L465.255 450.635C466.739 449.257 468.571 448.365 470.566 448.057L501.977 443.103C504.199 442.754 506.324 441.87 508.132 440.541L535.562 420.497C536.876 419.532 538.011 418.364 538.927 417.01L594.428 335.311C594.428 335.311 594.509 335.311 594.55 335.311ZM662.522 310.07C661.565 309.973 660.592 309.973 659.635 310.07L609.266 315.251C605.091 315.681 601.337 317.919 598.977 321.389L592.434 331.022C590.707 330.657 589.093 329.846 587.755 328.646L557.365 301.232C551.754 296.172 543.176 296.391 537.824 301.735L529.781 309.778C526.943 312.616 522.686 313.516 518.948 312.057L430.47 277.718C428.824 277.077 427.097 276.753 425.338 276.753H408.781C406.697 276.753 404.694 276.121 402.991 274.937L329.246 223.571C327.025 222.022 325.541 219.711 325.063 217.052L321.535 197.454C321.171 195.451 320.392 193.594 319.273 191.965L409.421 191.089V216.735C409.421 224.138 414.975 230.211 422.354 230.868L462.985 234.493C465.985 234.76 468.693 236.333 470.412 238.814L483.174 257.212C485.307 260.285 488.51 262.369 492.191 263.066L539.819 272.107C542.438 272.602 545.122 272.358 547.603 271.393L572.658 261.664C576.395 260.212 580.644 261.104 583.482 263.934L594.688 275.099C596.796 277.199 599.464 278.561 602.391 279.048L671.052 290.359C674.198 290.878 676.946 292.88 678.414 295.71L687.13 312.608L662.522 310.102V310.07ZM713.758 349.72C711.431 348.828 709.526 347.117 708.382 344.903L694.168 317.367L735.999 321.624C738.302 321.859 740.475 322.889 742.113 324.519L774.603 356.782C776.508 358.671 777.595 361.29 777.595 363.974V374.19L713.758 349.72Z"/>
</mask>
<path d="M781.649 363.974C781.649 360.22 780.124 356.555 777.457 353.904L744.967 321.641C742.664 319.354 739.624 317.919 736.405 317.595L691.939 313.07L682.006 293.829C679.955 289.864 676.103 287.059 671.7 286.337L603.039 275.026C600.947 274.677 599.042 273.704 597.534 272.204L586.328 261.039C582.355 257.082 576.404 255.834 571.174 257.869L546.119 267.599C544.343 268.288 542.422 268.458 540.557 268.11L492.929 259.069C490.302 258.574 488.015 257.082 486.491 254.885L473.728 236.487C471.32 233.017 467.533 230.82 463.333 230.438L422.703 226.814C417.44 226.344 413.467 222.006 413.467 216.719V191.032L495.475 190.238C499.107 190.205 502.553 188.794 505.172 186.273L521.551 170.51C523.618 168.524 526.44 167.494 529.311 167.705L574.141 170.94C574.482 170.964 574.822 170.98 575.163 170.98H597.574C601.385 170.98 604.839 173.08 606.583 176.47L612.104 187.189C614.545 191.932 619.386 194.876 624.713 194.876H698.985C700.882 194.876 702.739 195.411 704.352 196.416L860.356 293.878L862.505 290.44L706.501 192.978C704.247 191.567 701.644 190.821 698.985 190.821H624.713C620.902 190.821 617.448 188.721 615.704 185.332L610.183 174.613C607.742 169.87 602.901 166.926 597.574 166.926H575.163C574.92 166.926 574.676 166.918 574.433 166.902L529.602 163.667C525.589 163.375 521.632 164.81 518.737 167.591L502.359 183.354C500.486 185.154 498.029 186.159 495.426 186.183L413.459 186.978V133.325C413.459 129.896 412.219 126.579 409.965 123.993L377.458 86.7433C374.929 83.8486 371.272 82.081 367.428 81.9026L278.675 77.735C278.059 77.7026 277.443 77.6215 276.843 77.4836L134.591 44.2153C133.577 43.9802 132.612 43.591 131.72 43.0558L108.441 29.2068C104.006 26.5716 102.263 21.0337 104.387 16.3309L125.874 -31.3378L122.177 -33L100.69 14.6687C97.7222 21.2526 100.163 29.0041 106.374 32.6934L129.653 46.5424C130.901 47.2883 132.255 47.8316 133.674 48.164L274.451 81.0999L275.367 101.079C275.415 102.19 275.237 103.268 274.824 104.298L263.796 131.777C262.377 135.304 262.767 139.317 264.826 142.52L288.567 179.397C290.278 182.056 290.173 185.559 288.308 188.113L271.118 211.595C269.764 213.452 268.986 215.641 268.864 217.927L266.464 264.218C266.294 267.469 267.437 270.558 269.683 272.918C271.929 275.277 274.953 276.583 278.205 276.583H278.489C280.67 276.583 282.762 277.515 284.213 279.137C285.672 280.759 286.378 282.932 286.143 285.105L281.359 330.041C281.018 333.203 281.999 336.414 284.051 338.854L332.255 396.164C333.422 397.55 334.063 399.31 334.063 401.118V471.531C334.063 474.32 335.06 477.028 336.868 479.152L377.142 526.44C378.196 527.68 379.477 528.67 380.945 529.383L409.081 543.086L411.294 562.554C411.602 565.254 410.792 568.019 409.065 570.119L402.124 578.592C400.056 581.122 398.913 584.317 398.913 587.585V601.604C398.913 607.053 394.648 611.504 389.199 611.731L384.107 611.942C376.485 612.258 370.51 618.485 370.51 626.123V661.078H374.564V626.123C374.564 620.674 378.829 616.223 384.277 615.996L389.369 615.785C396.991 615.469 402.967 609.242 402.967 601.604V587.585C402.967 585.249 403.778 582.971 405.262 581.163L412.202 572.69C414.619 569.746 415.754 565.879 415.324 562.092L413.402 545.186L432.222 554.357C433.706 555.078 435.287 555.476 436.933 555.532L641.521 563.17C643.556 563.243 645.446 564.103 646.84 565.587L709.777 632.488C711.123 633.923 711.869 635.796 711.869 637.767V671.984H715.923V637.767C715.923 634.759 714.788 631.896 712.728 629.707L674.952 589.555L677.498 543.719C677.741 539.405 676.03 535.27 672.819 532.383L649.135 511.091C647.002 509.169 645.778 506.429 645.778 503.558V345.43C645.778 337.606 639.413 331.241 631.589 331.241H597.185L602.334 323.66C604.02 321.178 606.696 319.581 609.68 319.273L660.049 314.092C660.73 314.019 661.427 314.019 662.108 314.092L689.344 316.865L704.766 346.752C706.363 349.849 709.039 352.241 712.299 353.49L777.587 378.52V655.767H781.641V380.093L860.737 410.41L862.189 406.624L781.641 375.747V363.974H781.649ZM267.559 133.285L278.586 105.806C279.218 104.233 279.494 102.579 279.421 100.892L278.545 81.8053L367.266 85.9649C370.007 86.0946 372.618 87.3514 374.426 89.4271L406.932 126.677C408.546 128.525 409.429 130.893 409.429 133.342V187.035L315.138 187.951L285.745 167.526L268.232 140.323C266.886 138.231 266.634 135.596 267.559 133.285ZM382.721 525.743C381.764 525.272 380.921 524.624 380.231 523.813L339.958 476.525C338.774 475.131 338.117 473.363 338.117 471.531V401.118C338.117 398.353 337.136 395.669 335.36 393.553L287.156 336.244C285.81 334.646 285.17 332.546 285.389 330.471L290.173 285.534C290.529 282.226 289.451 278.902 287.221 276.429C284.991 273.956 281.805 272.529 278.48 272.529H278.197C276.064 272.529 274.078 271.677 272.61 270.129C271.142 268.58 270.396 266.553 270.502 264.428L272.902 218.138C272.983 216.638 273.494 215.203 274.378 213.987L291.567 190.505C294.421 186.605 294.583 181.254 291.965 177.191L291.486 176.453L313.346 191.64C315.568 193.189 317.06 195.5 317.538 198.167L321.065 217.765C321.738 221.487 323.814 224.73 326.919 226.895L400.664 278.261C403.056 279.923 405.862 280.807 408.773 280.807H425.33C426.587 280.807 427.827 281.042 428.995 281.496L517.472 315.835C522.71 317.87 528.67 316.613 532.643 312.64L540.686 304.597C544.505 300.778 550.635 300.624 554.641 304.24L585.031 331.654C586.49 332.968 588.193 333.941 590.025 334.557L535.57 414.724C534.913 415.689 534.103 416.524 533.162 417.213L505.732 437.257C504.442 438.205 502.918 438.838 501.337 439.081L469.925 444.035C467.128 444.473 464.558 445.73 462.49 447.652L418.843 488.144C417.481 489.409 416.386 490.909 415.608 492.604L407.419 510.361C406.332 512.721 405.91 515.332 406.202 517.91L408.521 538.319L382.704 525.743H382.721ZM594.55 335.311H631.58C637.167 335.311 641.716 339.86 641.716 345.447V503.575C641.716 507.596 643.427 511.44 646.419 514.123L670.103 535.416C672.398 537.475 673.614 540.435 673.444 543.516L671.117 585.501L649.784 562.83C647.651 560.568 644.765 559.254 641.659 559.141L437.079 551.503C436 551.462 434.962 551.203 433.989 550.732L412.851 540.435L410.24 517.464C410.029 515.623 410.329 513.758 411.108 512.072L419.297 494.315C419.857 493.107 420.635 492.036 421.608 491.128L465.255 450.635C466.739 449.257 468.571 448.365 470.566 448.057L501.977 443.103C504.199 442.754 506.324 441.87 508.132 440.541L535.562 420.497C536.876 419.532 538.011 418.364 538.927 417.01L594.428 335.311C594.428 335.311 594.509 335.311 594.55 335.311ZM662.522 310.07C661.565 309.973 660.592 309.973 659.635 310.07L609.266 315.251C605.091 315.681 601.337 317.919 598.977 321.389L592.434 331.022C590.707 330.657 589.093 329.846 587.755 328.646L557.365 301.232C551.754 296.172 543.176 296.391 537.824 301.735L529.781 309.778C526.943 312.616 522.686 313.516 518.948 312.057L430.47 277.718C428.824 277.077 427.097 276.753 425.338 276.753H408.781C406.697 276.753 404.694 276.121 402.991 274.937L329.246 223.571C327.025 222.022 325.541 219.711 325.063 217.052L321.535 197.454C321.171 195.451 320.392 193.594 319.273 191.965L409.421 191.089V216.735C409.421 224.138 414.975 230.211 422.354 230.868L462.985 234.493C465.985 234.76 468.693 236.333 470.412 238.814L483.174 257.212C485.307 260.285 488.51 262.369 492.191 263.066L539.819 272.107C542.438 272.602 545.122 272.358 547.603 271.393L572.658 261.664C576.395 260.212 580.644 261.104 583.482 263.934L594.688 275.099C596.796 277.199 599.464 278.561 602.391 279.048L671.052 290.359C674.198 290.878 676.946 292.88 678.414 295.71L687.13 312.608L662.522 310.102V310.07ZM713.758 349.72C711.431 348.828 709.526 347.117 708.382 344.903L694.168 317.367L735.999 321.624C738.302 321.859 740.475 322.889 742.113 324.519L774.603 356.782C776.508 358.671 777.595 361.29 777.595 363.974V374.19L713.758 349.72Z" fill="#F6F6F6" stroke="#4D4D4D" stroke-width="2" mask="url(#path-23-inside-1_323_712)"/>
</g>
<rect x="1" y="1" width="858" height="638" stroke="#0F1315" stroke-width="2"/>
<defs>
<clipPath id="clip0_323_712">
<rect width="860" height="640" fill="white"/>
</clipPath>
</defs>
</svg>
