<svg width="860" height="640" viewBox="0 0 860 640" fill="none" xmlns="http://www.w3.org/2000/svg">
<g clip-path="url(#clip0_323_462)">
<rect width="860" height="640" fill="#4D4D4D"/>
<path d="M67.9649 11.441L89.5492 62.8233C92.4033 69.6099 100.585 72.3262 106.933 68.5964L119.38 61.2746C121.423 60.0746 123.766 59.4989 126.134 59.6124L170.219 61.7449C171.905 61.826 173.559 62.2557 175.067 63.0179L279.291 115.13C281.724 116.346 284.497 116.711 287.165 116.168L313.281 110.824C316.736 110.119 320.328 110.946 323.125 113.095L338.271 124.722C340.809 126.668 344.012 127.536 347.19 127.138L353.239 126.384C355.582 126.092 357.958 126.49 360.083 127.519L387.553 140.914C389.216 141.725 391.04 142.147 392.889 142.147H409.876C412.786 142.147 415.608 141.101 417.814 139.195L434.087 125.176C436.536 123.06 439.73 122.014 442.957 122.265L456.79 123.327C458.25 123.441 459.677 123.814 460.998 124.43L477.993 132.36C481.358 133.933 485.258 133.876 488.575 132.214L491.761 130.625C494.664 129.173 496.861 126.627 497.875 123.546L514.432 73.1695C515.032 71.337 516.062 69.6748 517.432 68.3207L570.939 15.3816C578.666 7.73551 573.25 -5.42425 562.385 -5.42425H79.1787C70.4785 -5.43236 64.5919 3.4219 67.9649 11.441Z" fill="#F6F6F6"/>
<path d="M233.066 511.918C231.996 513.256 232.158 515.202 233.439 516.353L267.599 546.849C272.57 551.284 280.175 550.903 284.675 545.989L311.433 516.742L315.252 508.756C316.914 505.277 313.233 501.653 309.779 503.38L284.773 515.883C283.629 516.459 282.405 516.84 281.14 517.034L269.375 518.802C267.696 519.053 265.986 518.948 264.348 518.502L236.447 510.832C235.198 510.491 233.869 510.921 233.066 511.926V511.918Z" fill="#F6F6F6"/>
<path d="M533.349 137.955L527.567 122.923C525.808 118.358 526.959 113.184 530.486 109.787L564.768 76.8187C566.122 75.5133 567.16 73.916 567.793 72.1484L591.509 5.87116C593.236 1.03051 597.826 -2.19659 602.958 -2.19659H858.58C865.659 -2.19659 871.245 3.82787 870.71 10.8821L867.686 50.8073C867.581 52.2263 867.224 53.6128 866.64 54.902L841.699 109.974C840.556 112.495 840.312 115.341 841.002 118.025L845.267 134.598C845.713 136.317 846.702 137.842 848.096 138.945L848.534 139.293C853.132 142.918 852.491 150.069 847.318 152.818L804.06 175.813C802.203 176.802 800.801 178.472 800.152 180.467L786.441 222.679C785.987 224.082 785.16 225.33 784.049 226.295L767.524 240.663C767.24 240.914 766.932 241.141 766.616 241.344L707.19 279.867C706.282 280.459 705.261 280.856 704.19 281.051L656.489 289.459C655.638 289.605 654.77 289.621 653.919 289.499L596.147 281.099C594.647 280.88 593.115 281.091 591.72 281.699L573.006 289.905C570.647 290.943 568.92 293.035 568.352 295.54L566.511 303.673C566.179 305.132 565.457 306.462 564.42 307.532L540.833 331.817C539.308 333.39 537.208 334.273 535.019 334.273H528.905C527.713 334.273 526.538 334.014 525.459 333.503L520.983 331.403C518.762 330.357 516.2 330.373 513.994 331.444L499.626 338.425C499.245 338.611 498.88 338.822 498.532 339.065L484.764 348.658C484.447 348.876 484.147 349.12 483.864 349.387L470.525 361.858C466.382 365.734 460.114 366.228 455.412 363.05L402.132 327.081C400.697 326.108 399.067 325.46 397.364 325.168L341.952 315.762C340.468 315.511 338.96 315.535 337.485 315.835L323.303 318.73C310.249 321.397 303.024 304.151 314.084 296.716L528.775 152.38C533.486 149.218 535.376 143.218 533.34 137.923L533.349 137.955Z" fill="#F6F6F6"/>
<path d="M871.302 80.7513L852.71 102.619C849.491 106.406 848.899 111.782 851.226 116.176L864.094 140.534C867.345 146.696 864.775 154.326 858.451 157.253L831.239 169.845C829.074 170.851 827.25 172.464 826.001 174.491L788.614 235.012C787.795 236.333 786.741 237.485 785.492 238.401L744.051 269.002C738.813 272.869 737.548 280.183 741.188 285.583L748.381 296.254C749.872 298.459 752.037 300.121 754.559 300.973L841.423 330.422C842.68 330.852 844.002 331.062 845.331 331.062H882.743C889.457 331.062 894.906 325.614 894.906 318.9V88.6244C894.906 81.9107 889.457 76.462 882.743 76.462H880.57C877.002 76.462 873.613 78.0269 871.302 80.7513Z" fill="#F6F6F6"/>
<path d="M431.906 355.063L451.698 368.993C454.763 371.15 458.655 371.774 462.239 370.68L472.204 367.647C474.174 367.047 475.95 365.961 477.385 364.485L498.969 342.268C501.386 339.779 504.751 338.441 508.221 338.595L522.929 339.228C528.005 339.503 530.186 345.803 526.367 349.16L504.199 368.628C503.786 368.985 503.356 369.317 502.902 369.626L457.366 400.794L431.906 355.063Z" fill="#F6F6F6"/>
<path d="M783.133 336.584L784.146 345.301C784.641 349.549 787.325 353.222 791.225 354.982L805.682 361.509C808.504 362.782 811.714 362.936 814.642 361.923L828.815 357.05C839.729 353.295 839.769 337.882 828.88 334.071L799.236 323.692C790.755 320.724 782.103 327.657 783.141 336.576L783.133 336.584Z" fill="#F6F6F6"/>
<path d="M465.158 401.556L521.616 360.982C524.9 358.623 529.23 361.996 527.754 365.758L515.972 395.775C515.624 396.659 514.975 397.396 514.14 397.85L494.769 408.407C494.177 408.732 493.504 408.902 492.831 408.902H467.534C463.593 408.902 461.971 403.851 465.166 401.556H465.158Z" fill="#F6F6F6"/>
<path d="M170.786 61.7697L126.126 59.6048C123.758 59.4913 121.415 60.067 119.371 61.267L106.925 68.5888C100.576 72.3186 92.3951 69.6024 89.541 62.8157L68.0784 11.7172C64.681 3.62515 70.6973 -5.28586 79.4705 -5.15613L272.002 -2.30201C276.794 -2.22904 281.099 0.649409 282.997 5.05221L288.243 17.2552C289.581 20.3688 289.556 23.904 288.186 27.0014L262.629 84.5054C259.985 90.4488 253.142 93.2624 247.093 90.8947L174.629 62.5968C173.405 62.1184 172.108 61.8427 170.794 61.7778L170.786 61.7697Z" fill="#F6F6F6"/>
<path d="M226.036 311.708L248.528 331.525C253.004 335.465 253.961 342.065 250.791 347.117L239.034 365.839C236.261 370.258 230.982 372.415 225.906 371.199L175.051 359.06C168.451 357.487 164.413 350.806 166.091 344.23L172.221 320.141C173.519 315.049 177.938 311.359 183.184 311.003L217.174 308.7C220.409 308.481 223.604 309.567 226.036 311.708Z" fill="#F6F6F6"/>
<path d="M413.994 340.857L382.121 329.141C381.196 328.8 380.232 328.573 379.25 328.468L354.082 325.711C352.152 325.5 350.198 325.752 348.39 326.449L322.817 336.284C320.668 337.111 318.325 337.314 316.062 336.86L291.519 331.954C288.665 331.387 285.697 331.857 283.159 333.284L265.313 343.355C262.677 344.838 260.691 347.255 259.742 350.125L254.172 366.925C253.191 369.885 251.107 372.358 248.358 373.826L235.709 380.58C233.788 381.61 231.623 382.096 229.45 381.999L191.097 380.304C183.897 379.988 178.003 385.964 178.416 393.156L182.867 470.104C183.143 474.814 186.111 478.942 190.489 480.693L238.612 499.942C239.577 500.331 240.59 500.591 241.62 500.72L269.221 504.166C271.37 504.434 273.551 504.126 275.537 503.266L334.257 477.993C335.774 477.336 337.144 476.387 338.279 475.187L378.042 433.211C379.55 431.622 381.448 430.47 383.556 429.87L427.56 417.4C428.508 417.132 429.425 416.751 430.276 416.256L459.32 399.659C466.65 395.475 467.59 385.275 461.144 379.818L417.659 342.974C416.573 342.049 415.332 341.328 413.994 340.841V340.857Z" fill="#F6F6F6"/>
<path d="M213.266 508.456L258.08 548.113C263.578 552.978 263.545 561.565 258.015 566.39L247.028 575.974C242.609 579.825 236.074 579.979 231.485 576.338L210.752 559.919C209.244 558.719 208.036 557.187 207.233 555.427L192.176 522.394C188.268 513.815 195.176 504.239 204.549 505.253L206.519 505.464C209.025 505.731 211.384 506.777 213.274 508.448L213.266 508.456Z" fill="#F6F6F6"/>
<path d="M536.195 386.199H559.774C566.487 386.199 571.936 391.648 571.936 398.361V535.262C571.936 540.338 568.782 544.886 564.022 546.662L415.827 601.863C414.351 602.415 412.997 603.242 411.838 604.312L371.718 641.205C369.472 643.272 366.537 644.416 363.488 644.416H296.708C293.781 644.416 290.943 643.362 288.738 641.44L244.109 602.69C238.02 597.404 238.669 587.763 245.407 583.336L306.997 542.916C308.838 541.708 310.314 540.029 311.271 538.043L325.346 508.958C326.798 505.967 329.409 503.696 332.579 502.675L350.174 497.023C352.907 496.147 355.234 494.331 356.758 491.907L385.737 445.681C387.472 442.908 390.262 440.954 393.456 440.257L425.038 433.389C425.516 433.284 425.979 433.154 426.441 432.992L463.828 420.019C464.931 419.637 466.074 419.419 467.234 419.362L494.842 418.048C497.867 417.902 500.721 416.637 502.861 414.497L527.6 389.758C529.878 387.48 532.976 386.199 536.203 386.199H536.195Z" fill="#F6F6F6"/>
<path d="M588.534 306.478L546.598 352.825C546.03 353.449 545.535 354.131 545.114 354.852L520.765 396.577L559.547 397.923C566.349 398.159 571.636 403.932 571.271 410.726L564.566 536.267C564.249 542.251 568.328 547.57 574.19 548.811L603.591 555.046C611.034 556.627 615.218 564.581 612.299 571.611L599.139 603.298C597.25 607.839 592.823 610.799 587.909 610.799H585.355C576.266 610.799 570.387 620.399 574.523 628.491L579.266 637.775C581.342 641.845 585.525 644.408 590.099 644.408H853.87C860.583 644.408 866.032 638.959 866.032 632.245V364.371C866.032 354.674 855.232 348.876 847.148 354.236L835.796 361.769C834.88 362.377 833.883 362.855 832.837 363.196L808.155 371.215C804.295 372.471 800.071 371.717 796.884 369.212L783.23 358.485C780.7 356.498 779.062 353.587 778.673 350.393L776.062 328.962C775.543 324.73 772.851 321.073 768.951 319.33L740.962 306.819C739.737 306.275 738.44 305.935 737.11 305.813L670.679 299.724C670.152 299.675 669.625 299.659 669.098 299.683L597.096 302.481C593.828 302.61 590.747 304.046 588.55 306.47L588.534 306.478Z" fill="#F6F6F6"/>
<path d="M642.997 187.383L580.733 190.943C574.295 191.308 569.268 196.635 569.268 203.089V253.693C569.268 256.531 570.266 259.288 572.082 261.469L584.504 276.404C586.815 279.186 590.244 280.791 593.853 280.791H667.654C673.582 280.791 678.641 276.518 679.647 270.68L693.641 188.746C694.639 182.9 699.706 178.635 705.634 178.635H795.806C798.247 178.635 800.622 177.905 802.641 176.535L841.034 150.458C847.375 146.153 848.202 137.136 842.753 131.744L841.253 130.261C837.637 126.685 836.623 121.228 838.723 116.598L867.532 52.9722C871.164 44.9531 865.343 35.8556 856.545 35.7908L667.411 34.3961C660.681 34.3475 655.192 39.7638 655.159 46.4937L654.47 175.318C654.438 181.74 649.411 187.027 643.005 187.4L642.997 187.383Z" fill="#F6F6F6"/>
<path d="M566.836 165.442V252.088C566.836 255.647 565.279 259.028 562.571 261.339L490.083 323.222C486.799 326.027 486.288 330.916 488.923 334.338L488.98 334.411C491.485 337.663 491.169 342.268 488.242 345.147L470.469 362.604C465.855 367.136 458.509 367.266 453.733 362.904L430.633 341.773C429.425 340.671 428.014 339.819 426.465 339.276L411.278 333.925C406.413 332.206 403.162 327.616 403.162 322.451V162.815C403.162 156.102 408.611 150.653 415.324 150.653H432.725C433.746 150.653 434.76 150.523 435.741 150.272L444.563 148.01C447.109 147.353 449.809 147.547 452.241 148.553L471.19 156.402C473.063 157.18 475.099 157.472 477.118 157.261L519.864 152.753C520.359 152.704 520.854 152.68 521.348 152.688L554.876 153.272C561.509 153.385 566.828 158.802 566.828 165.434L566.836 165.442Z" fill="#F6F6F6"/>
<path d="M577.409 287.57L573.517 289.775C570.793 291.316 568.766 293.854 567.866 296.854L565.368 305.148C564.736 307.248 563.552 309.13 561.938 310.613L540.524 330.244C537.249 333.244 532.603 334.225 528.394 332.798L521.413 330.422C518.048 329.279 514.359 329.668 511.302 331.476L499.067 338.725C494.534 341.409 488.858 337.857 489.296 332.603L489.677 328.095C489.937 324.957 491.404 322.046 493.772 319.97L559.352 262.393C564.695 257.699 572.909 258.574 577.141 264.283L581.179 269.731C585.534 275.602 583.766 283.953 577.409 287.561V287.57Z" fill="#F6F6F6"/>
<path d="M388.332 325.289L344.733 315.478C343.079 315.105 341.368 315.081 339.706 315.413L265.856 329.976C262.353 330.665 258.729 329.781 255.931 327.56L226.441 304.102C225.258 303.162 223.92 302.448 222.476 302.002L180.443 288.956C178.594 288.38 176.908 287.375 175.521 286.013L97.4628 209.341C91.7059 203.689 92.9465 194.105 99.952 190.108L121.723 177.67C124.301 176.194 127.334 175.716 130.245 176.324L188.989 188.584C190.351 188.867 191.746 188.916 193.124 188.729L240.347 182.267C243.088 181.894 245.877 182.462 248.245 183.881L265.613 194.284C267.964 195.694 270.729 196.27 273.453 195.905L294.421 193.148C297.186 192.784 298.767 189.808 297.519 187.319L297.089 186.467C296.059 184.4 293.513 183.613 291.494 184.74L284.359 188.705C281.926 190.059 279.105 190.529 276.372 190.059L267.259 188.47C263.886 187.886 260.91 185.9 259.077 183.005L231.89 140.185C230.463 137.939 230.552 135.044 232.117 132.896L244.645 115.674C246.947 112.511 251.504 112.09 254.35 114.774L273.121 132.523C276.137 135.377 275.732 140.282 272.302 142.609L272.156 142.707C268.548 145.147 268.329 150.385 271.718 153.126L276.859 157.277C277.726 157.983 278.764 158.445 279.867 158.631L296.967 161.486C297.421 161.559 297.876 161.591 298.33 161.567L348.155 159.264C349.59 159.199 350.985 158.753 352.193 157.967L364.591 149.931C366.82 148.488 369.61 148.229 372.066 149.226L385.267 154.618C387.31 155.453 389.597 155.421 391.616 154.521L391.786 154.448C397.145 152.072 403.178 155.996 403.178 161.859V313.419C403.178 321.211 395.945 326.992 388.348 325.281L388.332 325.289Z" fill="#F6F6F6"/>
<path d="M387.512 321.286L343.914 311.475C342.259 311.102 340.549 311.078 338.886 311.41L265.036 325.972C261.533 326.662 257.909 325.778 255.111 323.556L225.622 300.099C224.438 299.158 223.1 298.445 221.657 297.999L179.623 284.953C177.775 284.377 176.088 283.372 174.702 282.009L96.643 205.337C90.8861 199.686 92.1266 190.102 99.1322 186.104L120.903 173.666C123.481 172.191 126.514 171.712 129.425 172.32L188.169 184.58C189.532 184.864 190.926 184.912 192.305 184.726L239.527 178.264C242.268 177.891 245.057 178.458 247.425 179.877L264.793 190.28C267.144 191.691 269.909 192.267 272.633 191.902L293.602 189.145C296.366 188.78 297.948 185.804 296.699 183.315L296.269 182.464C295.239 180.396 292.693 179.61 290.674 180.737L283.539 184.702C281.107 186.056 278.285 186.526 275.552 186.056L266.439 184.467C263.066 183.883 260.09 181.896 258.257 179.002L231.07 136.182C229.643 133.936 229.733 131.041 231.297 128.892L243.825 111.67C246.127 108.508 250.684 108.086 253.53 110.77L272.301 128.519C275.317 131.373 274.912 136.279 271.482 138.606L271.336 138.703C267.728 141.144 267.509 146.382 270.898 149.122L276.039 153.274C276.907 153.979 277.944 154.441 279.047 154.628L296.148 157.482C296.602 157.555 297.056 157.588 297.51 157.563L347.335 155.26C348.77 155.196 350.165 154.75 351.373 153.963L363.771 145.928C366 144.485 368.79 144.225 371.247 145.222L384.447 150.614C386.49 151.45 388.777 151.417 390.796 150.517L390.966 150.444C396.326 148.068 402.358 151.993 402.358 157.855V309.415C402.358 317.207 395.126 322.989 387.528 321.278L387.512 321.286Z" fill="#ADADAD"/>
<path d="M387.512 315.286L343.914 305.475C342.259 305.102 340.549 305.078 338.886 305.41L265.036 319.972C261.533 320.662 257.909 319.778 255.111 317.556L225.622 294.099C224.438 293.158 223.1 292.445 221.657 291.999L179.623 278.953C177.775 278.377 176.088 277.372 174.702 276.009L96.643 199.337C90.8861 193.686 92.1266 184.102 99.1322 180.104L120.903 167.666C123.481 166.191 126.514 165.712 129.425 166.32L188.169 178.58C189.532 178.864 190.926 178.912 192.305 178.726L239.527 172.264C242.268 171.891 245.057 172.458 247.425 173.877L264.793 184.28C267.144 185.691 269.909 186.267 272.633 185.902L293.602 183.145C296.366 182.78 297.948 179.804 296.699 177.315L296.269 176.464C295.239 174.396 292.693 173.61 290.674 174.737L283.539 178.702C281.107 180.056 278.285 180.526 275.552 180.056L266.439 178.467C263.066 177.883 260.09 175.896 258.257 173.002L231.07 130.182C229.643 127.936 229.733 125.041 231.297 122.892L243.825 105.67C246.127 102.508 250.684 102.086 253.53 104.77L272.301 122.519C275.317 125.373 274.912 130.279 271.482 132.606L271.336 132.703C267.728 135.144 267.509 140.382 270.898 143.122L276.039 147.274C276.907 147.979 277.944 148.441 279.047 148.628L296.148 151.482C296.602 151.555 297.056 151.588 297.51 151.563L347.335 149.26C348.77 149.196 350.165 148.75 351.373 147.963L363.771 139.928C366 138.485 368.79 138.225 371.247 139.222L384.447 144.614C386.49 145.45 388.777 145.417 390.796 144.517L390.966 144.444C396.326 142.068 402.358 145.993 402.358 151.855V303.415C402.358 311.207 395.126 316.989 387.528 315.278L387.512 315.286Z" fill="#364EC0"/>
<mask id="path-23-inside-1_323_462" fill="white">
<path d="M781.649 363.974C781.649 360.22 780.124 356.555 777.457 353.904L744.967 321.641C742.664 319.354 739.624 317.919 736.405 317.595L691.939 313.07L682.006 293.829C679.955 289.864 676.103 287.059 671.7 286.337L603.039 275.026C600.947 274.677 599.042 273.704 597.534 272.204L586.328 261.039C582.355 257.082 576.404 255.834 571.174 257.869L546.119 267.599C544.343 268.288 542.422 268.458 540.557 268.11L492.929 259.069C490.302 258.574 488.015 257.082 486.491 254.885L473.728 236.487C471.32 233.017 467.533 230.82 463.333 230.438L422.703 226.814C417.44 226.344 413.467 222.006 413.467 216.719V191.032L495.475 190.238C499.107 190.205 502.553 188.794 505.172 186.273L521.551 170.51C523.618 168.524 526.44 167.494 529.311 167.705L574.141 170.94C574.482 170.964 574.822 170.98 575.163 170.98H597.574C601.385 170.98 604.839 173.08 606.583 176.47L612.104 187.189C614.545 191.932 619.386 194.876 624.713 194.876H698.985C700.882 194.876 702.739 195.411 704.352 196.416L860.356 293.878L862.505 290.44L706.501 192.978C704.247 191.567 701.644 190.821 698.985 190.821H624.713C620.902 190.821 617.448 188.721 615.704 185.332L610.183 174.613C607.742 169.87 602.901 166.926 597.574 166.926H575.163C574.92 166.926 574.676 166.918 574.433 166.902L529.602 163.667C525.589 163.375 521.632 164.81 518.737 167.591L502.359 183.354C500.486 185.154 498.029 186.159 495.426 186.183L413.459 186.978V133.325C413.459 129.896 412.219 126.579 409.965 123.993L377.458 86.7433C374.929 83.8486 371.272 82.081 367.428 81.9026L278.675 77.735C278.059 77.7026 277.443 77.6215 276.843 77.4836L134.591 44.2153C133.577 43.9802 132.612 43.591 131.72 43.0558L108.441 29.2068C104.006 26.5716 102.263 21.0337 104.387 16.3309L125.874 -31.3378L122.177 -33L100.69 14.6687C97.7222 21.2526 100.163 29.0041 106.374 32.6934L129.653 46.5424C130.901 47.2883 132.255 47.8316 133.674 48.164L274.451 81.0999L275.367 101.079C275.415 102.19 275.237 103.268 274.824 104.298L263.796 131.777C262.377 135.304 262.767 139.317 264.826 142.52L288.567 179.397C290.278 182.056 290.173 185.559 288.308 188.113L271.118 211.595C269.764 213.452 268.986 215.641 268.864 217.927L266.464 264.218C266.294 267.469 267.437 270.558 269.683 272.918C271.929 275.277 274.953 276.583 278.205 276.583H278.489C280.67 276.583 282.762 277.515 284.213 279.137C285.672 280.759 286.378 282.932 286.143 285.105L281.359 330.041C281.018 333.203 281.999 336.414 284.051 338.854L332.255 396.164C333.422 397.55 334.063 399.31 334.063 401.118V471.531C334.063 474.32 335.06 477.028 336.868 479.152L377.142 526.44C378.196 527.68 379.477 528.67 380.945 529.383L409.081 543.086L411.294 562.554C411.602 565.254 410.792 568.019 409.065 570.119L402.124 578.592C400.056 581.122 398.913 584.317 398.913 587.585V601.604C398.913 607.053 394.648 611.504 389.199 611.731L384.107 611.942C376.485 612.258 370.51 618.485 370.51 626.123V661.078H374.564V626.123C374.564 620.674 378.829 616.223 384.277 615.996L389.369 615.785C396.991 615.469 402.967 609.242 402.967 601.604V587.585C402.967 585.249 403.778 582.971 405.262 581.163L412.202 572.69C414.619 569.746 415.754 565.879 415.324 562.092L413.402 545.186L432.222 554.357C433.706 555.078 435.287 555.476 436.933 555.532L641.521 563.17C643.556 563.243 645.446 564.103 646.84 565.587L709.777 632.488C711.123 633.923 711.869 635.796 711.869 637.767V671.984H715.923V637.767C715.923 634.759 714.788 631.896 712.728 629.707L674.952 589.555L677.498 543.719C677.741 539.405 676.03 535.27 672.819 532.383L649.135 511.091C647.002 509.169 645.778 506.429 645.778 503.558V345.43C645.778 337.606 639.413 331.241 631.589 331.241H597.185L602.334 323.66C604.02 321.178 606.696 319.581 609.68 319.273L660.049 314.092C660.73 314.019 661.427 314.019 662.108 314.092L689.344 316.865L704.766 346.752C706.363 349.849 709.039 352.241 712.299 353.49L777.587 378.52V655.767H781.641V380.093L860.737 410.41L862.189 406.624L781.641 375.747V363.974H781.649ZM267.559 133.285L278.586 105.806C279.218 104.233 279.494 102.579 279.421 100.892L278.545 81.8053L367.266 85.9649C370.007 86.0946 372.618 87.3514 374.426 89.4271L406.932 126.677C408.546 128.525 409.429 130.893 409.429 133.342V187.035L315.138 187.951L285.745 167.526L268.232 140.323C266.886 138.231 266.634 135.596 267.559 133.285ZM382.721 525.743C381.764 525.272 380.921 524.624 380.231 523.813L339.958 476.525C338.774 475.131 338.117 473.363 338.117 471.531V401.118C338.117 398.353 337.136 395.669 335.36 393.553L287.156 336.244C285.81 334.646 285.17 332.546 285.389 330.471L290.173 285.534C290.529 282.226 289.451 278.902 287.221 276.429C284.991 273.956 281.805 272.529 278.48 272.529H278.197C276.064 272.529 274.078 271.677 272.61 270.129C271.142 268.58 270.396 266.553 270.502 264.428L272.902 218.138C272.983 216.638 273.494 215.203 274.378 213.987L291.567 190.505C294.421 186.605 294.583 181.254 291.965 177.191L291.486 176.453L313.346 191.64C315.568 193.189 317.06 195.5 317.538 198.167L321.065 217.765C321.738 221.487 323.814 224.73 326.919 226.895L400.664 278.261C403.056 279.923 405.862 280.807 408.773 280.807H425.33C426.587 280.807 427.827 281.042 428.995 281.496L517.472 315.835C522.71 317.87 528.67 316.613 532.643 312.64L540.686 304.597C544.505 300.778 550.635 300.624 554.641 304.24L585.031 331.654C586.49 332.968 588.193 333.941 590.025 334.557L535.57 414.724C534.913 415.689 534.103 416.524 533.162 417.213L505.732 437.257C504.442 438.205 502.918 438.838 501.337 439.081L469.925 444.035C467.128 444.473 464.558 445.73 462.49 447.652L418.843 488.144C417.481 489.409 416.386 490.909 415.608 492.604L407.419 510.361C406.332 512.721 405.91 515.332 406.202 517.91L408.521 538.319L382.704 525.743H382.721ZM594.55 335.311H631.58C637.167 335.311 641.716 339.86 641.716 345.447V503.575C641.716 507.596 643.427 511.44 646.419 514.123L670.103 535.416C672.398 537.475 673.614 540.435 673.444 543.516L671.117 585.501L649.784 562.83C647.651 560.568 644.765 559.254 641.659 559.141L437.079 551.503C436 551.462 434.962 551.203 433.989 550.732L412.851 540.435L410.24 517.464C410.029 515.623 410.329 513.758 411.108 512.072L419.297 494.315C419.857 493.107 420.635 492.036 421.608 491.128L465.255 450.635C466.739 449.257 468.571 448.365 470.566 448.057L501.977 443.103C504.199 442.754 506.324 441.87 508.132 440.541L535.562 420.497C536.876 419.532 538.011 418.364 538.927 417.01L594.428 335.311C594.428 335.311 594.509 335.311 594.55 335.311ZM662.522 310.07C661.565 309.973 660.592 309.973 659.635 310.07L609.266 315.251C605.091 315.681 601.337 317.919 598.977 321.389L592.434 331.022C590.707 330.657 589.093 329.846 587.755 328.646L557.365 301.232C551.754 296.172 543.176 296.391 537.824 301.735L529.781 309.778C526.943 312.616 522.686 313.516 518.948 312.057L430.47 277.718C428.824 277.077 427.097 276.753 425.338 276.753H408.781C406.697 276.753 404.694 276.121 402.991 274.937L329.246 223.571C327.025 222.022 325.541 219.711 325.063 217.052L321.535 197.454C321.171 195.451 320.392 193.594 319.273 191.965L409.421 191.089V216.735C409.421 224.138 414.975 230.211 422.354 230.868L462.985 234.493C465.985 234.76 468.693 236.333 470.412 238.814L483.174 257.212C485.307 260.285 488.51 262.369 492.191 263.066L539.819 272.107C542.438 272.602 545.122 272.358 547.603 271.393L572.658 261.664C576.395 260.212 580.644 261.104 583.482 263.934L594.688 275.099C596.796 277.199 599.464 278.561 602.391 279.048L671.052 290.359C674.198 290.878 676.946 292.88 678.414 295.71L687.13 312.608L662.522 310.102V310.07ZM713.758 349.72C711.431 348.828 709.526 347.117 708.382 344.903L694.168 317.367L735.999 321.624C738.302 321.859 740.475 322.889 742.113 324.519L774.603 356.782C776.508 358.671 777.595 361.29 777.595 363.974V374.19L713.758 349.72Z"/>
</mask>
<path d="M781.649 363.974C781.649 360.22 780.124 356.555 777.457 353.904L744.967 321.641C742.664 319.354 739.624 317.919 736.405 317.595L691.939 313.07L682.006 293.829C679.955 289.864 676.103 287.059 671.7 286.337L603.039 275.026C600.947 274.677 599.042 273.704 597.534 272.204L586.328 261.039C582.355 257.082 576.404 255.834 571.174 257.869L546.119 267.599C544.343 268.288 542.422 268.458 540.557 268.11L492.929 259.069C490.302 258.574 488.015 257.082 486.491 254.885L473.728 236.487C471.32 233.017 467.533 230.82 463.333 230.438L422.703 226.814C417.44 226.344 413.467 222.006 413.467 216.719V191.032L495.475 190.238C499.107 190.205 502.553 188.794 505.172 186.273L521.551 170.51C523.618 168.524 526.44 167.494 529.311 167.705L574.141 170.94C574.482 170.964 574.822 170.98 575.163 170.98H597.574C601.385 170.98 604.839 173.08 606.583 176.47L612.104 187.189C614.545 191.932 619.386 194.876 624.713 194.876H698.985C700.882 194.876 702.739 195.411 704.352 196.416L860.356 293.878L862.505 290.44L706.501 192.978C704.247 191.567 701.644 190.821 698.985 190.821H624.713C620.902 190.821 617.448 188.721 615.704 185.332L610.183 174.613C607.742 169.87 602.901 166.926 597.574 166.926H575.163C574.92 166.926 574.676 166.918 574.433 166.902L529.602 163.667C525.589 163.375 521.632 164.81 518.737 167.591L502.359 183.354C500.486 185.154 498.029 186.159 495.426 186.183L413.459 186.978V133.325C413.459 129.896 412.219 126.579 409.965 123.993L377.458 86.7433C374.929 83.8486 371.272 82.081 367.428 81.9026L278.675 77.735C278.059 77.7026 277.443 77.6215 276.843 77.4836L134.591 44.2153C133.577 43.9802 132.612 43.591 131.72 43.0558L108.441 29.2068C104.006 26.5716 102.263 21.0337 104.387 16.3309L125.874 -31.3378L122.177 -33L100.69 14.6687C97.7222 21.2526 100.163 29.0041 106.374 32.6934L129.653 46.5424C130.901 47.2883 132.255 47.8316 133.674 48.164L274.451 81.0999L275.367 101.079C275.415 102.19 275.237 103.268 274.824 104.298L263.796 131.777C262.377 135.304 262.767 139.317 264.826 142.52L288.567 179.397C290.278 182.056 290.173 185.559 288.308 188.113L271.118 211.595C269.764 213.452 268.986 215.641 268.864 217.927L266.464 264.218C266.294 267.469 267.437 270.558 269.683 272.918C271.929 275.277 274.953 276.583 278.205 276.583H278.489C280.67 276.583 282.762 277.515 284.213 279.137C285.672 280.759 286.378 282.932 286.143 285.105L281.359 330.041C281.018 333.203 281.999 336.414 284.051 338.854L332.255 396.164C333.422 397.55 334.063 399.31 334.063 401.118V471.531C334.063 474.32 335.06 477.028 336.868 479.152L377.142 526.44C378.196 527.68 379.477 528.67 380.945 529.383L409.081 543.086L411.294 562.554C411.602 565.254 410.792 568.019 409.065 570.119L402.124 578.592C400.056 581.122 398.913 584.317 398.913 587.585V601.604C398.913 607.053 394.648 611.504 389.199 611.731L384.107 611.942C376.485 612.258 370.51 618.485 370.51 626.123V661.078H374.564V626.123C374.564 620.674 378.829 616.223 384.277 615.996L389.369 615.785C396.991 615.469 402.967 609.242 402.967 601.604V587.585C402.967 585.249 403.778 582.971 405.262 581.163L412.202 572.69C414.619 569.746 415.754 565.879 415.324 562.092L413.402 545.186L432.222 554.357C433.706 555.078 435.287 555.476 436.933 555.532L641.521 563.17C643.556 563.243 645.446 564.103 646.84 565.587L709.777 632.488C711.123 633.923 711.869 635.796 711.869 637.767V671.984H715.923V637.767C715.923 634.759 714.788 631.896 712.728 629.707L674.952 589.555L677.498 543.719C677.741 539.405 676.03 535.27 672.819 532.383L649.135 511.091C647.002 509.169 645.778 506.429 645.778 503.558V345.43C645.778 337.606 639.413 331.241 631.589 331.241H597.185L602.334 323.66C604.02 321.178 606.696 319.581 609.68 319.273L660.049 314.092C660.73 314.019 661.427 314.019 662.108 314.092L689.344 316.865L704.766 346.752C706.363 349.849 709.039 352.241 712.299 353.49L777.587 378.52V655.767H781.641V380.093L860.737 410.41L862.189 406.624L781.641 375.747V363.974H781.649ZM267.559 133.285L278.586 105.806C279.218 104.233 279.494 102.579 279.421 100.892L278.545 81.8053L367.266 85.9649C370.007 86.0946 372.618 87.3514 374.426 89.4271L406.932 126.677C408.546 128.525 409.429 130.893 409.429 133.342V187.035L315.138 187.951L285.745 167.526L268.232 140.323C266.886 138.231 266.634 135.596 267.559 133.285ZM382.721 525.743C381.764 525.272 380.921 524.624 380.231 523.813L339.958 476.525C338.774 475.131 338.117 473.363 338.117 471.531V401.118C338.117 398.353 337.136 395.669 335.36 393.553L287.156 336.244C285.81 334.646 285.17 332.546 285.389 330.471L290.173 285.534C290.529 282.226 289.451 278.902 287.221 276.429C284.991 273.956 281.805 272.529 278.48 272.529H278.197C276.064 272.529 274.078 271.677 272.61 270.129C271.142 268.58 270.396 266.553 270.502 264.428L272.902 218.138C272.983 216.638 273.494 215.203 274.378 213.987L291.567 190.505C294.421 186.605 294.583 181.254 291.965 177.191L291.486 176.453L313.346 191.64C315.568 193.189 317.06 195.5 317.538 198.167L321.065 217.765C321.738 221.487 323.814 224.73 326.919 226.895L400.664 278.261C403.056 279.923 405.862 280.807 408.773 280.807H425.33C426.587 280.807 427.827 281.042 428.995 281.496L517.472 315.835C522.71 317.87 528.67 316.613 532.643 312.64L540.686 304.597C544.505 300.778 550.635 300.624 554.641 304.24L585.031 331.654C586.49 332.968 588.193 333.941 590.025 334.557L535.57 414.724C534.913 415.689 534.103 416.524 533.162 417.213L505.732 437.257C504.442 438.205 502.918 438.838 501.337 439.081L469.925 444.035C467.128 444.473 464.558 445.73 462.49 447.652L418.843 488.144C417.481 489.409 416.386 490.909 415.608 492.604L407.419 510.361C406.332 512.721 405.91 515.332 406.202 517.91L408.521 538.319L382.704 525.743H382.721ZM594.55 335.311H631.58C637.167 335.311 641.716 339.86 641.716 345.447V503.575C641.716 507.596 643.427 511.44 646.419 514.123L670.103 535.416C672.398 537.475 673.614 540.435 673.444 543.516L671.117 585.501L649.784 562.83C647.651 560.568 644.765 559.254 641.659 559.141L437.079 551.503C436 551.462 434.962 551.203 433.989 550.732L412.851 540.435L410.24 517.464C410.029 515.623 410.329 513.758 411.108 512.072L419.297 494.315C419.857 493.107 420.635 492.036 421.608 491.128L465.255 450.635C466.739 449.257 468.571 448.365 470.566 448.057L501.977 443.103C504.199 442.754 506.324 441.87 508.132 440.541L535.562 420.497C536.876 419.532 538.011 418.364 538.927 417.01L594.428 335.311C594.428 335.311 594.509 335.311 594.55 335.311ZM662.522 310.07C661.565 309.973 660.592 309.973 659.635 310.07L609.266 315.251C605.091 315.681 601.337 317.919 598.977 321.389L592.434 331.022C590.707 330.657 589.093 329.846 587.755 328.646L557.365 301.232C551.754 296.172 543.176 296.391 537.824 301.735L529.781 309.778C526.943 312.616 522.686 313.516 518.948 312.057L430.47 277.718C428.824 277.077 427.097 276.753 425.338 276.753H408.781C406.697 276.753 404.694 276.121 402.991 274.937L329.246 223.571C327.025 222.022 325.541 219.711 325.063 217.052L321.535 197.454C321.171 195.451 320.392 193.594 319.273 191.965L409.421 191.089V216.735C409.421 224.138 414.975 230.211 422.354 230.868L462.985 234.493C465.985 234.76 468.693 236.333 470.412 238.814L483.174 257.212C485.307 260.285 488.51 262.369 492.191 263.066L539.819 272.107C542.438 272.602 545.122 272.358 547.603 271.393L572.658 261.664C576.395 260.212 580.644 261.104 583.482 263.934L594.688 275.099C596.796 277.199 599.464 278.561 602.391 279.048L671.052 290.359C674.198 290.878 676.946 292.88 678.414 295.71L687.13 312.608L662.522 310.102V310.07ZM713.758 349.72C711.431 348.828 709.526 347.117 708.382 344.903L694.168 317.367L735.999 321.624C738.302 321.859 740.475 322.889 742.113 324.519L774.603 356.782C776.508 358.671 777.595 361.29 777.595 363.974V374.19L713.758 349.72Z" fill="#F6F6F6" stroke="#4D4D4D" stroke-width="2" mask="url(#path-23-inside-1_323_462)"/>
</g>
<rect x="1" y="1" width="858" height="638" stroke="#0F1315" stroke-width="2"/>
<defs>
<clipPath id="clip0_323_462">
<rect width="860" height="640" fill="white"/>
</clipPath>
</defs>
</svg>
