<svg width="860" height="640" viewBox="0 0 860 640" fill="none" xmlns="http://www.w3.org/2000/svg">
<g clip-path="url(#clip0_323_582)">
<rect width="860" height="640" fill="#4D4D4D"/>
<path d="M67.965 10.441L89.5493 61.8233C92.4034 68.6099 100.585 71.3262 106.933 67.5964L119.38 60.2746C121.423 59.0746 123.766 58.4989 126.134 58.6124L170.219 60.7449C171.905 60.826 173.559 61.2557 175.067 62.0179L279.292 114.13C281.724 115.346 284.497 115.711 287.165 115.168L313.281 109.824C316.736 109.119 320.328 109.946 323.125 112.095L338.271 123.722C340.809 125.668 344.012 126.536 347.19 126.138L353.239 125.384C355.582 125.092 357.958 125.49 360.083 126.519L387.553 139.914C389.216 140.725 391.04 141.147 392.889 141.147H409.876C412.786 141.147 415.608 140.101 417.814 138.195L434.087 124.176C436.536 122.06 439.73 121.014 442.957 121.265L456.79 122.327C458.25 122.441 459.677 122.814 460.998 123.43L477.993 131.36C481.358 132.933 485.258 132.876 488.575 131.214L491.761 129.625C494.664 128.173 496.861 125.627 497.875 122.546L514.432 72.1695C515.032 70.337 516.062 68.6748 517.432 67.3207L570.939 14.3816C578.666 6.73551 573.25 -6.42425 562.385 -6.42425H79.1788C70.4786 -6.43236 64.5919 2.4219 67.965 10.441Z" fill="#F6F6F6"/>
<path d="M233.066 510.918C231.996 512.256 232.158 514.202 233.439 515.353L267.599 545.849C272.57 550.284 280.175 549.903 284.675 544.989L311.433 515.742L315.252 507.756C316.914 504.277 313.233 500.653 309.779 502.38L284.773 514.883C283.629 515.459 282.405 515.84 281.14 516.034L269.375 517.802C267.697 518.053 265.986 517.948 264.348 517.502L236.447 509.832C235.199 509.491 233.869 509.921 233.066 510.926V510.918Z" fill="#F6F6F6"/>
<path d="M533.349 136.955L527.567 121.923C525.808 117.358 526.959 112.184 530.486 108.787L564.768 75.8187C566.122 74.5133 567.16 72.916 567.793 71.1484L591.509 4.87116C593.237 0.0305076 597.826 -3.19659 602.958 -3.19659H858.58C865.659 -3.19659 871.246 2.82787 870.71 9.88209L867.686 49.8073C867.581 51.2263 867.224 52.6128 866.64 53.902L841.699 108.974C840.556 111.495 840.312 114.341 841.002 117.025L845.267 133.598C845.713 135.317 846.702 136.842 848.096 137.945L848.534 138.293C853.132 141.918 852.491 149.069 847.318 151.818L804.06 174.813C802.203 175.802 800.801 177.472 800.152 179.467L786.441 221.679C785.987 223.082 785.16 224.33 784.049 225.295L767.524 239.663C767.241 239.914 766.932 240.141 766.616 240.344L707.19 278.867C706.282 279.459 705.261 279.856 704.19 280.051L656.489 288.459C655.638 288.605 654.77 288.621 653.919 288.499L596.147 280.099C594.647 279.88 593.115 280.091 591.72 280.699L573.006 288.905C570.647 289.943 568.92 292.035 568.352 294.54L566.512 302.673C566.179 304.132 565.457 305.462 564.42 306.532L540.833 330.817C539.308 332.39 537.208 333.273 535.019 333.273H528.905C527.713 333.273 526.538 333.014 525.459 332.503L520.983 330.403C518.762 329.357 516.2 329.373 513.994 330.444L499.626 337.425C499.245 337.611 498.88 337.822 498.532 338.065L484.764 347.658C484.447 347.876 484.147 348.12 483.864 348.387L470.526 360.858C466.382 364.734 460.114 365.228 455.412 362.05L402.132 326.081C400.697 325.108 399.067 324.46 397.364 324.168L341.952 314.762C340.468 314.511 338.96 314.535 337.485 314.835L323.303 317.73C310.249 320.397 303.024 303.151 314.084 295.716L528.776 151.38C533.486 148.218 535.376 142.218 533.341 136.923L533.349 136.955Z" fill="#F6F6F6"/>
<path d="M871.302 79.7513L852.71 101.619C849.491 105.406 848.899 110.782 851.226 115.176L864.094 139.534C867.346 145.696 864.775 153.326 858.451 156.253L831.239 168.845C829.074 169.851 827.25 171.464 826.001 173.491L788.614 234.012C787.795 235.333 786.741 236.485 785.492 237.401L744.051 268.002C738.813 271.869 737.548 279.183 741.189 284.583L748.381 295.254C749.873 297.459 752.037 299.121 754.559 299.973L841.423 329.422C842.68 329.852 844.002 330.062 845.332 330.062H882.743C889.457 330.062 894.906 324.614 894.906 317.9V87.6244C894.906 80.9107 889.457 75.462 882.743 75.462H880.57C877.003 75.462 873.613 77.0269 871.302 79.7513Z" fill="#F6F6F6"/>
<path d="M431.906 354.063L451.698 367.993C454.763 370.15 458.655 370.774 462.239 369.68L472.204 366.647C474.174 366.047 475.95 364.961 477.385 363.485L498.969 341.268C501.386 338.779 504.751 337.441 508.221 337.595L522.929 338.228C528.005 338.503 530.186 344.803 526.367 348.16L504.199 367.628C503.786 367.985 503.356 368.317 502.902 368.626L457.366 399.794L431.906 354.063Z" fill="#F6F6F6"/>
<path d="M783.133 335.584L784.146 344.301C784.641 348.549 787.325 352.222 791.225 353.982L805.682 360.509C808.504 361.782 811.715 361.936 814.642 360.923L828.815 356.05C839.729 352.295 839.769 336.882 828.88 333.071L799.236 322.692C790.755 319.724 782.103 326.657 783.141 335.576L783.133 335.584Z" fill="#F6F6F6"/>
<path d="M465.158 400.556L521.616 359.982C524.9 357.623 529.23 360.996 527.754 364.758L515.973 394.775C515.624 395.659 514.975 396.396 514.14 396.85L494.769 407.407C494.177 407.732 493.504 407.902 492.831 407.902H467.534C463.593 407.902 461.971 402.851 465.166 400.556H465.158Z" fill="#F6F6F6"/>
<path d="M170.786 60.7697L126.126 58.6048C123.758 58.4913 121.415 59.067 119.372 60.267L106.925 67.5888C100.577 71.3186 92.3952 68.6024 89.5411 61.8157L68.0785 10.7172C64.6811 2.62515 70.6975 -6.28586 79.4706 -6.15613L272.002 -3.30201C276.794 -3.22904 281.1 -0.350591 282.997 4.05221L288.243 16.2552C289.581 19.3688 289.557 22.904 288.186 26.0014L262.629 83.5054C259.986 89.4488 253.142 92.2624 247.093 89.8947L174.63 61.5968C173.405 61.1184 172.108 60.8427 170.794 60.7778L170.786 60.7697Z" fill="#F6F6F6"/>
<path d="M172.671 57.9273L128.01 55.7624C125.643 55.6489 123.299 56.2246 121.256 57.4246L108.81 64.7464C102.461 68.4762 94.2798 65.7599 91.4256 58.9733L69.963 7.87482C66.5656 -0.217255 72.582 -9.12827 81.3551 -8.99854L273.887 -6.14442C278.679 -6.07144 282.984 -3.193 284.881 1.20981L290.128 13.4128C291.465 16.5264 291.441 20.0616 290.071 23.159L264.513 80.663C261.87 86.6064 255.027 89.42 248.978 87.0523L176.514 58.7544C175.29 58.276 173.992 58.0003 172.679 57.9354L172.671 57.9273Z" fill="#ADADAD"/>
<path d="M174.671 52.9273L130.01 50.7624C127.643 50.6489 125.299 51.2246 123.256 52.4246L110.81 59.7464C104.461 63.4762 96.2798 60.7599 93.4256 53.9733L71.963 2.87482C68.5656 -5.21725 74.582 -14.1283 83.3551 -13.9985L275.887 -11.1444C280.679 -11.0714 284.984 -8.193 286.881 -3.79019L292.128 8.41279C293.465 11.5264 293.441 15.0616 292.071 18.159L266.513 75.663C263.87 81.6064 257.027 84.42 250.978 82.0523L178.514 53.7544C177.29 53.276 175.992 53.0003 174.679 52.9354L174.671 52.9273Z" fill="#364EC0"/>
<path d="M226.036 310.708L248.528 330.525C253.004 334.465 253.961 341.065 250.791 346.117L239.034 364.839C236.261 369.258 230.982 371.415 225.906 370.199L175.051 358.06C168.451 356.487 164.413 349.806 166.091 343.23L172.221 319.141C173.519 314.049 177.938 310.359 183.184 310.003L217.174 307.7C220.409 307.481 223.604 308.567 226.036 310.708Z" fill="#F6F6F6"/>
<path d="M413.994 339.857L382.121 328.141C381.196 327.8 380.232 327.573 379.25 327.468L354.082 324.711C352.152 324.5 350.198 324.752 348.39 325.449L322.817 335.284C320.668 336.111 318.325 336.314 316.062 335.86L291.519 330.954C288.665 330.387 285.697 330.857 283.159 332.284L265.313 342.355C262.677 343.839 260.691 346.255 259.742 349.125L254.172 365.926C253.191 368.885 251.107 371.358 248.358 372.826L235.709 379.58C233.788 380.61 231.623 381.096 229.45 380.999L191.097 379.304C183.897 378.988 178.002 384.964 178.416 392.156L182.867 469.104C183.143 473.814 186.111 477.942 190.489 479.693L238.612 498.942C239.577 499.331 240.59 499.591 241.62 499.72L269.221 503.167C271.37 503.434 273.551 503.126 275.537 502.267L334.257 476.993C335.774 476.336 337.144 475.387 338.279 474.187L378.042 432.211C379.55 430.622 381.448 429.47 383.556 428.87L427.56 416.4C428.508 416.132 429.425 415.751 430.276 415.256L459.32 398.659C466.65 394.475 467.59 384.275 461.144 378.818L417.659 341.974C416.573 341.049 415.332 340.328 413.994 339.841V339.857Z" fill="#F6F6F6"/>
<path d="M588.534 305.478L546.598 351.825C546.03 352.449 545.535 353.131 545.114 353.852L520.765 395.577L559.547 396.923C566.349 397.159 571.636 402.932 571.271 409.726L564.566 535.267C564.249 541.251 568.328 546.57 574.19 547.811L603.591 554.046C611.034 555.627 615.218 563.581 612.299 570.611L599.139 602.299C597.25 606.839 592.823 609.799 587.909 609.799H585.355C576.266 609.799 570.387 619.399 574.523 627.491L579.266 636.775C581.342 640.845 585.526 643.408 590.099 643.408H853.87C860.583 643.408 866.032 637.959 866.032 631.245V363.371C866.032 353.674 855.232 347.876 847.148 353.236L835.796 360.769C834.88 361.377 833.883 361.855 832.837 362.196L808.155 370.215C804.296 371.472 800.071 370.717 796.885 368.212L783.23 357.485C780.7 355.498 779.062 352.587 778.673 349.393L776.062 327.962C775.543 323.73 772.852 320.073 768.951 318.33L740.962 305.819C739.737 305.275 738.44 304.935 737.11 304.813L670.679 298.724C670.152 298.675 669.625 298.659 669.098 298.683L597.096 301.481C593.829 301.61 590.747 303.046 588.55 305.47L588.534 305.478Z" fill="#F6F6F6"/>
<path d="M213.266 507.456L258.08 547.113C263.578 551.978 263.545 560.565 258.015 565.39L247.028 574.974C242.609 578.825 236.074 578.979 231.485 575.338L210.752 558.919C209.244 557.719 208.036 556.187 207.233 554.427L192.176 521.394C188.268 512.815 195.176 503.239 204.549 504.253L206.519 504.464C209.025 504.731 211.384 505.777 213.274 507.448L213.266 507.456Z" fill="#F6F6F6"/>
<path d="M536.195 385.199H559.774C566.487 385.199 571.936 390.648 571.936 397.361V534.262C571.936 539.338 568.782 543.886 564.022 545.662L415.827 600.863C414.351 601.415 412.997 602.242 411.838 603.312L371.718 640.205C369.472 642.272 366.537 643.416 363.488 643.416H296.708C293.781 643.416 290.943 642.362 288.738 640.44L244.11 601.69C238.02 596.404 238.669 586.763 245.407 582.336L306.997 541.916C308.838 540.708 310.314 539.029 311.271 537.043L325.347 507.958C326.798 504.967 329.409 502.696 332.579 501.675L350.174 496.023C352.907 495.147 355.234 493.331 356.758 490.907L385.737 444.681C387.472 441.908 390.262 439.954 393.456 439.257L425.038 432.389C425.516 432.284 425.979 432.154 426.441 431.992L463.828 419.019C464.931 418.637 466.074 418.419 467.234 418.362L494.842 417.048C497.867 416.902 500.721 415.637 502.861 413.497L527.6 388.758C529.878 386.48 532.976 385.199 536.203 385.199H536.195Z" fill="#F6F6F6"/>
<path d="M577.409 286.57L573.517 288.775C570.793 290.316 568.766 292.854 567.866 295.854L565.368 304.148C564.736 306.248 563.552 308.13 561.939 309.613L540.525 329.244C537.249 332.244 532.603 333.225 528.395 331.798L521.413 329.422C518.048 328.279 514.359 328.668 511.302 330.476L499.067 337.725C494.534 340.409 488.858 336.857 489.296 331.603L489.677 327.095C489.937 323.957 491.404 321.046 493.772 318.97L559.352 261.393C564.695 256.699 572.909 257.574 577.142 263.283L581.18 268.731C585.534 274.602 583.766 282.953 577.409 286.562V286.57Z" fill="#F6F6F6"/>
<path d="M642.997 186.383L580.733 189.943C574.295 190.308 569.268 195.635 569.268 202.089V252.693C569.268 255.531 570.266 258.288 572.082 260.469L584.504 275.404C586.815 278.186 590.244 279.791 593.853 279.791H667.654C673.582 279.791 678.641 275.518 679.647 269.68L693.641 187.746C694.639 181.9 699.706 177.635 705.634 177.635H795.806C798.247 177.635 800.622 176.905 802.641 175.535L841.034 149.458C847.375 145.153 848.202 136.136 842.753 130.744L841.253 129.261C837.637 125.685 836.623 120.228 838.723 115.598L867.532 51.9722C871.164 43.9531 865.343 34.8556 856.545 34.7908L667.411 33.3961C660.681 33.3475 655.192 38.7638 655.159 45.4937L654.47 174.318C654.438 180.74 649.411 186.027 643.005 186.4L642.997 186.383Z" fill="#F6F6F6"/>
<path d="M566.836 164.442V251.088C566.836 254.647 565.279 258.028 562.571 260.339L490.083 322.222C486.799 325.027 486.288 329.917 488.923 333.338L488.98 333.411C491.486 336.663 491.169 341.268 488.242 344.147L470.469 361.604C465.855 366.136 458.509 366.266 453.733 361.904L430.633 340.774C429.425 339.671 428.014 338.819 426.465 338.276L411.278 332.925C406.413 331.206 403.162 326.616 403.162 321.451V161.815C403.162 155.102 408.611 149.653 415.324 149.653H432.725C433.746 149.653 434.76 149.523 435.741 149.272L444.563 147.01C447.109 146.353 449.809 146.547 452.241 147.553L471.19 155.402C473.063 156.18 475.099 156.472 477.118 156.261L519.865 151.753C520.359 151.704 520.854 151.68 521.348 151.688L554.876 152.272C561.509 152.385 566.828 157.802 566.828 164.434L566.836 164.442Z" fill="#F6F6F6"/>
<path d="M388.332 324.289L344.733 314.478C343.079 314.105 341.368 314.081 339.706 314.413L265.856 328.976C262.353 329.665 258.729 328.781 255.931 326.56L226.441 303.102C225.258 302.162 223.92 301.448 222.477 301.002L180.443 287.956C178.594 287.38 176.908 286.375 175.521 285.013L97.4628 208.341C91.7059 202.689 92.9465 193.105 99.9521 189.108L121.723 176.67C124.301 175.194 127.334 174.716 130.245 175.324L188.989 187.584C190.351 187.867 191.746 187.916 193.125 187.729L240.347 181.267C243.088 180.894 245.877 181.462 248.245 182.881L265.613 193.284C267.964 194.694 270.729 195.27 273.453 194.905L294.421 192.148C297.186 191.784 298.767 188.808 297.519 186.319L297.089 185.467C296.059 183.4 293.513 182.613 291.494 183.74L284.359 187.705C281.927 189.059 279.105 189.529 276.372 189.059L267.259 187.47C263.886 186.886 260.91 184.9 259.077 182.005L231.89 139.185C230.463 136.939 230.552 134.044 232.117 131.896L244.645 114.674C246.947 111.511 251.504 111.09 254.35 113.774L273.121 131.523C276.137 134.377 275.732 139.282 272.302 141.609L272.156 141.707C268.548 144.147 268.329 149.385 271.718 152.126L276.859 156.277C277.726 156.983 278.764 157.445 279.867 157.631L296.967 160.486C297.421 160.559 297.876 160.591 298.33 160.567L348.155 158.264C349.59 158.199 350.985 157.753 352.193 156.967L364.591 148.931C366.82 147.488 369.61 147.229 372.066 148.226L385.267 153.618C387.31 154.453 389.597 154.421 391.616 153.521L391.786 153.448C397.145 151.072 403.178 154.996 403.178 160.859V312.419C403.178 320.211 395.945 325.992 388.348 324.281L388.332 324.289Z" fill="#F6F6F6"/>
<mask id="path-23-inside-1_323_582" fill="white">
<path d="M781.649 363.974C781.649 360.22 780.124 356.555 777.457 353.904L744.967 321.641C742.664 319.354 739.624 317.919 736.405 317.595L691.939 313.07L682.006 293.829C679.955 289.864 676.103 287.059 671.7 286.337L603.039 275.026C600.947 274.677 599.042 273.704 597.534 272.204L586.328 261.039C582.355 257.082 576.404 255.834 571.174 257.869L546.119 267.599C544.343 268.288 542.422 268.458 540.557 268.11L492.929 259.069C490.302 258.574 488.015 257.082 486.491 254.885L473.728 236.487C471.32 233.017 467.533 230.82 463.333 230.438L422.703 226.814C417.44 226.344 413.467 222.006 413.467 216.719V191.032L495.475 190.238C499.107 190.205 502.553 188.794 505.172 186.273L521.551 170.51C523.618 168.524 526.44 167.494 529.311 167.705L574.141 170.94C574.482 170.964 574.822 170.98 575.163 170.98H597.574C601.385 170.98 604.839 173.08 606.583 176.47L612.104 187.189C614.545 191.932 619.386 194.876 624.713 194.876H698.985C700.882 194.876 702.739 195.411 704.352 196.416L860.356 293.878L862.505 290.44L706.501 192.978C704.247 191.567 701.644 190.821 698.985 190.821H624.713C620.902 190.821 617.448 188.721 615.704 185.332L610.183 174.613C607.742 169.87 602.901 166.926 597.574 166.926H575.163C574.92 166.926 574.676 166.918 574.433 166.902L529.602 163.667C525.589 163.375 521.632 164.81 518.737 167.591L502.359 183.354C500.486 185.154 498.029 186.159 495.426 186.183L413.459 186.978V133.325C413.459 129.896 412.219 126.579 409.965 123.993L377.458 86.7433C374.929 83.8486 371.272 82.081 367.428 81.9026L278.675 77.735C278.059 77.7026 277.443 77.6215 276.843 77.4836L134.591 44.2153C133.577 43.9802 132.612 43.591 131.72 43.0558L108.441 29.2068C104.006 26.5716 102.263 21.0337 104.387 16.3309L125.874 -31.3378L122.177 -33L100.69 14.6687C97.7222 21.2526 100.163 29.0041 106.374 32.6934L129.653 46.5424C130.901 47.2883 132.255 47.8316 133.674 48.164L274.451 81.0999L275.367 101.079C275.415 102.19 275.237 103.268 274.824 104.298L263.796 131.777C262.377 135.304 262.767 139.317 264.826 142.52L288.567 179.397C290.278 182.056 290.173 185.559 288.308 188.113L271.118 211.595C269.764 213.452 268.986 215.641 268.864 217.927L266.464 264.218C266.294 267.469 267.437 270.558 269.683 272.918C271.929 275.277 274.953 276.583 278.205 276.583H278.489C280.67 276.583 282.762 277.515 284.213 279.137C285.672 280.759 286.378 282.932 286.143 285.105L281.359 330.041C281.018 333.203 281.999 336.414 284.051 338.854L332.255 396.164C333.422 397.55 334.063 399.31 334.063 401.118V471.531C334.063 474.32 335.06 477.028 336.868 479.152L377.142 526.44C378.196 527.68 379.477 528.67 380.945 529.383L409.081 543.086L411.294 562.554C411.602 565.254 410.792 568.019 409.065 570.119L402.124 578.592C400.056 581.122 398.913 584.317 398.913 587.585V601.604C398.913 607.053 394.648 611.504 389.199 611.731L384.107 611.942C376.485 612.258 370.51 618.485 370.51 626.123V661.078H374.564V626.123C374.564 620.674 378.829 616.223 384.277 615.996L389.369 615.785C396.991 615.469 402.967 609.242 402.967 601.604V587.585C402.967 585.249 403.778 582.971 405.262 581.163L412.202 572.69C414.619 569.746 415.754 565.879 415.324 562.092L413.402 545.186L432.222 554.357C433.706 555.078 435.287 555.476 436.933 555.532L641.521 563.17C643.556 563.243 645.446 564.103 646.84 565.587L709.777 632.488C711.123 633.923 711.869 635.796 711.869 637.767V671.984H715.923V637.767C715.923 634.759 714.788 631.896 712.728 629.707L674.952 589.555L677.498 543.719C677.741 539.405 676.03 535.27 672.819 532.383L649.135 511.091C647.002 509.169 645.778 506.429 645.778 503.558V345.43C645.778 337.606 639.413 331.241 631.589 331.241H597.185L602.334 323.66C604.02 321.178 606.696 319.581 609.68 319.273L660.049 314.092C660.73 314.019 661.427 314.019 662.108 314.092L689.344 316.865L704.766 346.752C706.363 349.849 709.039 352.241 712.299 353.49L777.587 378.52V655.767H781.641V380.093L860.737 410.41L862.189 406.624L781.641 375.747V363.974H781.649ZM267.559 133.285L278.586 105.806C279.218 104.233 279.494 102.579 279.421 100.892L278.545 81.8053L367.266 85.9649C370.007 86.0946 372.618 87.3514 374.426 89.4271L406.932 126.677C408.546 128.525 409.429 130.893 409.429 133.342V187.035L315.138 187.951L285.745 167.526L268.232 140.323C266.886 138.231 266.634 135.596 267.559 133.285ZM382.721 525.743C381.764 525.272 380.921 524.624 380.231 523.813L339.958 476.525C338.774 475.131 338.117 473.363 338.117 471.531V401.118C338.117 398.353 337.136 395.669 335.36 393.553L287.156 336.244C285.81 334.646 285.17 332.546 285.389 330.471L290.173 285.534C290.529 282.226 289.451 278.902 287.221 276.429C284.991 273.956 281.805 272.529 278.48 272.529H278.197C276.064 272.529 274.078 271.677 272.61 270.129C271.142 268.58 270.396 266.553 270.502 264.428L272.902 218.138C272.983 216.638 273.494 215.203 274.378 213.987L291.567 190.505C294.421 186.605 294.583 181.254 291.965 177.191L291.486 176.453L313.346 191.64C315.568 193.189 317.06 195.5 317.538 198.167L321.065 217.765C321.738 221.487 323.814 224.73 326.919 226.895L400.664 278.261C403.056 279.923 405.862 280.807 408.773 280.807H425.33C426.587 280.807 427.827 281.042 428.995 281.496L517.472 315.835C522.71 317.87 528.67 316.613 532.643 312.64L540.686 304.597C544.505 300.778 550.635 300.624 554.641 304.24L585.031 331.654C586.49 332.968 588.193 333.941 590.025 334.557L535.57 414.724C534.913 415.689 534.103 416.524 533.162 417.213L505.732 437.257C504.442 438.205 502.918 438.838 501.337 439.081L469.925 444.035C467.128 444.473 464.558 445.73 462.49 447.652L418.843 488.144C417.481 489.409 416.386 490.909 415.608 492.604L407.419 510.361C406.332 512.721 405.91 515.332 406.202 517.91L408.521 538.319L382.704 525.743H382.721ZM594.55 335.311H631.58C637.167 335.311 641.716 339.86 641.716 345.447V503.575C641.716 507.596 643.427 511.44 646.419 514.123L670.103 535.416C672.398 537.475 673.614 540.435 673.444 543.516L671.117 585.501L649.784 562.83C647.651 560.568 644.765 559.254 641.659 559.141L437.079 551.503C436 551.462 434.962 551.203 433.989 550.732L412.851 540.435L410.24 517.464C410.029 515.623 410.329 513.758 411.108 512.072L419.297 494.315C419.857 493.107 420.635 492.036 421.608 491.128L465.255 450.635C466.739 449.257 468.571 448.365 470.566 448.057L501.977 443.103C504.199 442.754 506.324 441.87 508.132 440.541L535.562 420.497C536.876 419.532 538.011 418.364 538.927 417.01L594.428 335.311C594.428 335.311 594.509 335.311 594.55 335.311ZM662.522 310.07C661.565 309.973 660.592 309.973 659.635 310.07L609.266 315.251C605.091 315.681 601.337 317.919 598.977 321.389L592.434 331.022C590.707 330.657 589.093 329.846 587.755 328.646L557.365 301.232C551.754 296.172 543.176 296.391 537.824 301.735L529.781 309.778C526.943 312.616 522.686 313.516 518.948 312.057L430.47 277.718C428.824 277.077 427.097 276.753 425.338 276.753H408.781C406.697 276.753 404.694 276.121 402.991 274.937L329.246 223.571C327.025 222.022 325.541 219.711 325.063 217.052L321.535 197.454C321.171 195.451 320.392 193.594 319.273 191.965L409.421 191.089V216.735C409.421 224.138 414.975 230.211 422.354 230.868L462.985 234.493C465.985 234.76 468.693 236.333 470.412 238.814L483.174 257.212C485.307 260.285 488.51 262.369 492.191 263.066L539.819 272.107C542.438 272.602 545.122 272.358 547.603 271.393L572.658 261.664C576.395 260.212 580.644 261.104 583.482 263.934L594.688 275.099C596.796 277.199 599.464 278.561 602.391 279.048L671.052 290.359C674.198 290.878 676.946 292.88 678.414 295.71L687.13 312.608L662.522 310.102V310.07ZM713.758 349.72C711.431 348.828 709.526 347.117 708.382 344.903L694.168 317.367L735.999 321.624C738.302 321.859 740.475 322.889 742.113 324.519L774.603 356.782C776.508 358.671 777.595 361.29 777.595 363.974V374.19L713.758 349.72Z"/>
</mask>
<path d="M781.649 363.974C781.649 360.22 780.124 356.555 777.457 353.904L744.967 321.641C742.664 319.354 739.624 317.919 736.405 317.595L691.939 313.07L682.006 293.829C679.955 289.864 676.103 287.059 671.7 286.337L603.039 275.026C600.947 274.677 599.042 273.704 597.534 272.204L586.328 261.039C582.355 257.082 576.404 255.834 571.174 257.869L546.119 267.599C544.343 268.288 542.422 268.458 540.557 268.11L492.929 259.069C490.302 258.574 488.015 257.082 486.491 254.885L473.728 236.487C471.32 233.017 467.533 230.82 463.333 230.438L422.703 226.814C417.44 226.344 413.467 222.006 413.467 216.719V191.032L495.475 190.238C499.107 190.205 502.553 188.794 505.172 186.273L521.551 170.51C523.618 168.524 526.44 167.494 529.311 167.705L574.141 170.94C574.482 170.964 574.822 170.98 575.163 170.98H597.574C601.385 170.98 604.839 173.08 606.583 176.47L612.104 187.189C614.545 191.932 619.386 194.876 624.713 194.876H698.985C700.882 194.876 702.739 195.411 704.352 196.416L860.356 293.878L862.505 290.44L706.501 192.978C704.247 191.567 701.644 190.821 698.985 190.821H624.713C620.902 190.821 617.448 188.721 615.704 185.332L610.183 174.613C607.742 169.87 602.901 166.926 597.574 166.926H575.163C574.92 166.926 574.676 166.918 574.433 166.902L529.602 163.667C525.589 163.375 521.632 164.81 518.737 167.591L502.359 183.354C500.486 185.154 498.029 186.159 495.426 186.183L413.459 186.978V133.325C413.459 129.896 412.219 126.579 409.965 123.993L377.458 86.7433C374.929 83.8486 371.272 82.081 367.428 81.9026L278.675 77.735C278.059 77.7026 277.443 77.6215 276.843 77.4836L134.591 44.2153C133.577 43.9802 132.612 43.591 131.72 43.0558L108.441 29.2068C104.006 26.5716 102.263 21.0337 104.387 16.3309L125.874 -31.3378L122.177 -33L100.69 14.6687C97.7222 21.2526 100.163 29.0041 106.374 32.6934L129.653 46.5424C130.901 47.2883 132.255 47.8316 133.674 48.164L274.451 81.0999L275.367 101.079C275.415 102.19 275.237 103.268 274.824 104.298L263.796 131.777C262.377 135.304 262.767 139.317 264.826 142.52L288.567 179.397C290.278 182.056 290.173 185.559 288.308 188.113L271.118 211.595C269.764 213.452 268.986 215.641 268.864 217.927L266.464 264.218C266.294 267.469 267.437 270.558 269.683 272.918C271.929 275.277 274.953 276.583 278.205 276.583H278.489C280.67 276.583 282.762 277.515 284.213 279.137C285.672 280.759 286.378 282.932 286.143 285.105L281.359 330.041C281.018 333.203 281.999 336.414 284.051 338.854L332.255 396.164C333.422 397.55 334.063 399.31 334.063 401.118V471.531C334.063 474.32 335.06 477.028 336.868 479.152L377.142 526.44C378.196 527.68 379.477 528.67 380.945 529.383L409.081 543.086L411.294 562.554C411.602 565.254 410.792 568.019 409.065 570.119L402.124 578.592C400.056 581.122 398.913 584.317 398.913 587.585V601.604C398.913 607.053 394.648 611.504 389.199 611.731L384.107 611.942C376.485 612.258 370.51 618.485 370.51 626.123V661.078H374.564V626.123C374.564 620.674 378.829 616.223 384.277 615.996L389.369 615.785C396.991 615.469 402.967 609.242 402.967 601.604V587.585C402.967 585.249 403.778 582.971 405.262 581.163L412.202 572.69C414.619 569.746 415.754 565.879 415.324 562.092L413.402 545.186L432.222 554.357C433.706 555.078 435.287 555.476 436.933 555.532L641.521 563.17C643.556 563.243 645.446 564.103 646.84 565.587L709.777 632.488C711.123 633.923 711.869 635.796 711.869 637.767V671.984H715.923V637.767C715.923 634.759 714.788 631.896 712.728 629.707L674.952 589.555L677.498 543.719C677.741 539.405 676.03 535.27 672.819 532.383L649.135 511.091C647.002 509.169 645.778 506.429 645.778 503.558V345.43C645.778 337.606 639.413 331.241 631.589 331.241H597.185L602.334 323.66C604.02 321.178 606.696 319.581 609.68 319.273L660.049 314.092C660.73 314.019 661.427 314.019 662.108 314.092L689.344 316.865L704.766 346.752C706.363 349.849 709.039 352.241 712.299 353.49L777.587 378.52V655.767H781.641V380.093L860.737 410.41L862.189 406.624L781.641 375.747V363.974H781.649ZM267.559 133.285L278.586 105.806C279.218 104.233 279.494 102.579 279.421 100.892L278.545 81.8053L367.266 85.9649C370.007 86.0946 372.618 87.3514 374.426 89.4271L406.932 126.677C408.546 128.525 409.429 130.893 409.429 133.342V187.035L315.138 187.951L285.745 167.526L268.232 140.323C266.886 138.231 266.634 135.596 267.559 133.285ZM382.721 525.743C381.764 525.272 380.921 524.624 380.231 523.813L339.958 476.525C338.774 475.131 338.117 473.363 338.117 471.531V401.118C338.117 398.353 337.136 395.669 335.36 393.553L287.156 336.244C285.81 334.646 285.17 332.546 285.389 330.471L290.173 285.534C290.529 282.226 289.451 278.902 287.221 276.429C284.991 273.956 281.805 272.529 278.48 272.529H278.197C276.064 272.529 274.078 271.677 272.61 270.129C271.142 268.58 270.396 266.553 270.502 264.428L272.902 218.138C272.983 216.638 273.494 215.203 274.378 213.987L291.567 190.505C294.421 186.605 294.583 181.254 291.965 177.191L291.486 176.453L313.346 191.64C315.568 193.189 317.06 195.5 317.538 198.167L321.065 217.765C321.738 221.487 323.814 224.73 326.919 226.895L400.664 278.261C403.056 279.923 405.862 280.807 408.773 280.807H425.33C426.587 280.807 427.827 281.042 428.995 281.496L517.472 315.835C522.71 317.87 528.67 316.613 532.643 312.64L540.686 304.597C544.505 300.778 550.635 300.624 554.641 304.24L585.031 331.654C586.49 332.968 588.193 333.941 590.025 334.557L535.57 414.724C534.913 415.689 534.103 416.524 533.162 417.213L505.732 437.257C504.442 438.205 502.918 438.838 501.337 439.081L469.925 444.035C467.128 444.473 464.558 445.73 462.49 447.652L418.843 488.144C417.481 489.409 416.386 490.909 415.608 492.604L407.419 510.361C406.332 512.721 405.91 515.332 406.202 517.91L408.521 538.319L382.704 525.743H382.721ZM594.55 335.311H631.58C637.167 335.311 641.716 339.86 641.716 345.447V503.575C641.716 507.596 643.427 511.44 646.419 514.123L670.103 535.416C672.398 537.475 673.614 540.435 673.444 543.516L671.117 585.501L649.784 562.83C647.651 560.568 644.765 559.254 641.659 559.141L437.079 551.503C436 551.462 434.962 551.203 433.989 550.732L412.851 540.435L410.24 517.464C410.029 515.623 410.329 513.758 411.108 512.072L419.297 494.315C419.857 493.107 420.635 492.036 421.608 491.128L465.255 450.635C466.739 449.257 468.571 448.365 470.566 448.057L501.977 443.103C504.199 442.754 506.324 441.87 508.132 440.541L535.562 420.497C536.876 419.532 538.011 418.364 538.927 417.01L594.428 335.311C594.428 335.311 594.509 335.311 594.55 335.311ZM662.522 310.07C661.565 309.973 660.592 309.973 659.635 310.07L609.266 315.251C605.091 315.681 601.337 317.919 598.977 321.389L592.434 331.022C590.707 330.657 589.093 329.846 587.755 328.646L557.365 301.232C551.754 296.172 543.176 296.391 537.824 301.735L529.781 309.778C526.943 312.616 522.686 313.516 518.948 312.057L430.47 277.718C428.824 277.077 427.097 276.753 425.338 276.753H408.781C406.697 276.753 404.694 276.121 402.991 274.937L329.246 223.571C327.025 222.022 325.541 219.711 325.063 217.052L321.535 197.454C321.171 195.451 320.392 193.594 319.273 191.965L409.421 191.089V216.735C409.421 224.138 414.975 230.211 422.354 230.868L462.985 234.493C465.985 234.76 468.693 236.333 470.412 238.814L483.174 257.212C485.307 260.285 488.51 262.369 492.191 263.066L539.819 272.107C542.438 272.602 545.122 272.358 547.603 271.393L572.658 261.664C576.395 260.212 580.644 261.104 583.482 263.934L594.688 275.099C596.796 277.199 599.464 278.561 602.391 279.048L671.052 290.359C674.198 290.878 676.946 292.88 678.414 295.71L687.13 312.608L662.522 310.102V310.07ZM713.758 349.72C711.431 348.828 709.526 347.117 708.382 344.903L694.168 317.367L735.999 321.624C738.302 321.859 740.475 322.889 742.113 324.519L774.603 356.782C776.508 358.671 777.595 361.29 777.595 363.974V374.19L713.758 349.72Z" fill="#F6F6F6" stroke="#4D4D4D" stroke-width="2" mask="url(#path-23-inside-1_323_582)"/>
</g>
<rect x="1" y="1" width="858" height="638" stroke="#0F1315" stroke-width="2"/>
<defs>
<clipPath id="clip0_323_582">
<rect width="860" height="640" fill="white"/>
</clipPath>
</defs>
</svg>
