<svg width="150" height="119" viewBox="0 0 150 119" fill="none" xmlns="http://www.w3.org/2000/svg">
<path d="M150 74C150 90.7039 144.465 106.115 135.13 118.5C112 118.5 100.165 118.5 76 118.5C51.8348 118.5 46.5 118.5 16.8698 118.5C7.53452 106.115 2 90.7039 2 74C2 33.1309 35.1309 0 76 0C116.869 0 150 33.1309 150 74Z" fill="#C8D1FC"/>
<path d="M65.3739 28.7909H36.1129C32.7368 28.7909 30 31.5236 30 34.8946V34.8963C30 38.2672 32.7368 41 36.1129 41H65.3739C68.7499 41 71.4868 38.2672 71.4868 34.8963V34.8946C71.4868 31.5236 68.7499 28.7909 65.3739 28.7909Z" fill="#E3E7F0"/>
<path d="M73.6042 21H56.8819C52.5727 21 49.0793 24.4881 49.0793 28.7909V28.7925C49.0793 33.0953 52.5727 36.5834 56.8819 36.5834H73.6042C77.9134 36.5834 81.4068 33.0953 81.4068 28.7925V28.7909C81.4068 24.4881 77.9134 21 73.6042 21Z" fill="#E3E7F0"/>
<path d="M86.6974 95V117M127.632 95V117M82 98.52H133M82 106H133M82 110.4H133" stroke="#0F1315" stroke-width="3" stroke-linecap="round"/>
<path d="M42 109C58.0163 109 71 92.2107 71 71.5C71 50.7893 58.0163 34 42 34C25.9837 34 13 50.7893 13 71.5C13 92.2107 25.9837 109 42 109Z" fill="#008E6F"/>
<path d="M42.1802 41V117" stroke="#0F1315" stroke-width="3" stroke-miterlimit="10" stroke-linecap="round"/>
<path d="M65.52 71L43 97.08" stroke="#0F1315" stroke-width="3" stroke-miterlimit="10" stroke-linecap="round"/>
<path d="M61.76 51L42 73.86" stroke="#0F1315" stroke-width="3" stroke-miterlimit="10" stroke-linecap="round"/>
<path d="M19 71L41.52 97.08" stroke="#0F1315" stroke-width="3" stroke-miterlimit="10" stroke-linecap="round"/>
<path d="M22 51L41.76 73.86" stroke="#0F1315" stroke-width="3" stroke-miterlimit="10" stroke-linecap="round"/>
<path d="M118.016 39.1372H82.634C78.4179 39.1372 75 42.55 75 46.7598V46.7614C75 50.9712 78.4179 54.384 82.634 54.384H118.016C122.232 54.384 125.65 50.9712 125.65 46.7614V46.7598C125.65 42.55 122.232 39.1372 118.016 39.1372Z" fill="#E3E7F0"/>
<path d="M140.869 52.1819H134.728C132.014 52.1819 129.813 54.3794 129.813 57.0901V57.0918C129.813 59.8025 132.014 62 134.728 62H140.869C143.584 62 145.784 59.8025 145.784 57.0918V57.0901C145.784 54.3794 143.584 52.1819 140.869 52.1819Z" fill="#E3E7F0"/>
<path d="M132.852 27H103.7C99.0974 27 95.366 30.7258 95.366 35.3219V35.3235C95.366 39.9195 99.0974 43.6454 103.7 43.6454H132.852C137.455 43.6454 141.186 39.9195 141.186 35.3235V35.3219C141.186 30.7258 137.455 27 132.852 27Z" fill="#E3E7F0"/>
<path d="M1 118H146" stroke="#0F1315" stroke-width="2" stroke-linecap="round"/>
</svg>
